<svg viewBox="0 0 126 141" xmlns="http://www.w3.org/2000/svg"><style>@media(prefers-color-scheme:dark){path{fill:white}}</style><path d="m23.6 6.0999c-3e-4 -1.3354 0.5233-2.6177 1.4582-3.5713s2.2066-1.5025 3.5418-1.5287h49.5c6.5469-0.070229 13.063 0.90884 19.3 2.9l-8.7 8.8c-2.8676-0.5452-5.7811-0.8131-8.7-0.8h-50.6c-1.5383 0-3.0135-0.6111-4.1012-1.6988-1.0877-1.0877-1.6988-2.563-1.6988-4.1012z" fill="#25262A"/><path d="m88.8 75.1 8.9 8.9c-6.8051 2.2382-13.937 3.3198-21.1 3.2h-29.8c-2.9704 0-5.8192 1.18-7.9196 3.2804s-3.2804 4.9491-3.2804 7.9196v35.8c0 1.591-0.6322 3.117-1.7574 4.243-1.1252 1.125-2.6513 1.757-4.2426 1.757s-3.1174-0.632-4.2427-1.757c-1.1252-1.126-1.7573-2.652-1.7573-4.243v-43.5c0-3.8192 1.5171-7.4819 4.2177-10.182 2.7005-2.7005 6.3632-4.2176 10.182-4.2176h39.7c3.734 0.0322 7.4591-0.3705 11.1-1.2z" fill="#25262A"/><path d="m125.3 43.6c0 13.1-4.3 23.6-12 31-1.096 1.0434-2.557 1.617-4.07 1.5983-1.514-0.0186-2.96-0.6281-4.03-1.6983l-0.2-0.2c-1.078-1.0399-1.703-2.4621-1.74-3.959-0.037-1.497 0.516-2.9486 1.54-4.041 5-5.3 7.9-12.7 7.9-22.4 0-10.3-3-17.8-7.8-22.9-0.994-1.0874-1.529-2.5175-1.491-3.9903 0.037-1.4729 0.643-2.874 1.691-3.9097 1.053-1.0545 2.471-1.6635 3.96-1.7007 1.489-0.0373 2.936 0.5001 4.04 1.5007 7.7 7.3 12.2 17.6 12.2 30.7z" fill="#25262A"/><path d="m34.2 19.9v1.2h-9.2v-1.2c0-1.22 0.4846-2.3901 1.3473-3.2527 0.8627-0.8627 2.0327-1.3473 3.2527-1.3473s2.39 0.4846 3.2527 1.3473c0.8627 0.8626 1.3473 2.0327 1.3473 3.2527z" fill="#25262A"/><path d="m32.7 31.9h-6.2c-0.8837 0-1.6 0.7163-1.6 1.6v3.6c0 0.8836 0.7163 1.6 1.6 1.6h6.2c0.8836 0 1.6-0.7164 1.6-1.6v-3.6c0-0.8837-0.7164-1.6-1.6-1.6z" fill="#25262A"/><path d="m32.3 49.5h-5.5c-0.9941 0-1.8 0.8058-1.8 1.8v3c0 0.9941 0.8059 1.8 1.8 1.8h5.5c0.9941 0 1.8-0.8059 1.8-1.8v-3c0-0.9942-0.8059-1.8-1.8-1.8z" fill="#25262A"/><path d="m24.9 66.9h9.3v0.9c0.0341 1.1926-0.3771 2.3553-1.1536 3.2612s-1.8626 1.4901-3.0464 1.6388c-0.6417 0.0549-1.2878-0.0227-1.8982-0.2279-0.6105-0.2052-1.1722-0.5336-1.6505-0.9649-0.4782-0.4314-0.8626-0.9564-1.1295-1.5425s-0.4105-1.2208-0.4218-1.8647v-1.2z" fill="#25262A"/><path d="m59.1 26.4c0 1.1934-0.4741 2.338-1.318 3.1819-0.8439 0.844-1.9885 1.3181-3.182 1.3181h-50.1c-1.0656-0.1602-2.0383-0.6975-2.7413-1.5141-0.70304-0.8166-1.0897-1.8584-1.0897-2.9359 0-1.0776 0.38666-2.1194 1.0897-2.936 0.70303-0.8166 1.6758-1.3538 2.7413-1.514h50.2c1.1589 0.0254 2.2634 0.4972 3.0831 1.3169s1.2914 1.9241 1.3169 3.0831z" fill="#25262A"/><path d="m59.1 44c0 1.1934-0.4741 2.338-1.318 3.1819-0.8439 0.844-1.9885 1.3181-3.182 1.3181h-50.1c-1.0656-0.1602-2.0383-0.6975-2.7413-1.5141-0.70304-0.8166-1.0897-1.8584-1.0897-2.9359 0-1.0776 0.38666-2.1194 1.0897-2.936 0.70303-0.8166 1.6758-1.3539 2.7413-1.514h50.2c1.1589 0.0254 2.2634 0.4972 3.0831 1.3169s1.2914 1.9241 1.3169 3.0831z" fill="#25262A"/><path d="m59.1 61.6c0 1.1934-0.4741 2.338-1.318 3.1819-0.8439 0.844-1.9885 1.3181-3.182 1.3181h-50.1c-1.0656-0.1602-2.0383-0.6975-2.7413-1.5141-0.70304-0.8166-1.0897-1.8584-1.0897-2.9359 0-1.0776 0.38666-2.1194 1.0897-2.936 0.70303-0.8166 1.6758-1.3539 2.7413-1.514h50.2c1.1589 0.0254 2.2634 0.4972 3.0831 1.3169s1.2914 1.9241 1.3169 3.0831z" fill="#25262A"/><path d="m92.5 61.9c0.8222 0.8386 1.3803 1.9001 1.6049 3.0529 0.2247 1.1528 0.1061 2.3461-0.3411 3.4322-0.4472 1.086-1.2033 2.0168-2.1745 2.6772-0.9713 0.6604-2.1149 1.0212-3.2893 1.0377-1.2994 0.0073-2.5649-0.4145-3.6-1.2l-21.9-21.8c-0.6712-0.6689-1.2038-1.4638-1.5672-2.3389-0.3634-0.8752-0.5505-1.8135-0.5505-2.7611 0-0.9477 0.1871-1.886 0.5505-2.7611 0.3634-0.8752 0.896-1.67 1.5672-2.3389l3.4-3.3 17.9-17.9c0.8386-0.8223 1.9001-1.3803 3.0529-1.605 1.1528-0.2246 2.3462-0.106 3.4322 0.3412s2.0169 1.2032 2.6772 2.1745c0.6604 0.9712 1.0212 2.1149 1.0377 3.2893-6e-4 1.0976-0.3127 2.1726-0.9 3.1l-16.7 17c-0.5497 0.5607-0.8576 1.3147-0.8576 2.1 0 0.7852 0.3079 1.5392 0.8576 2.1l15.8 15.7z" fill="#25262A"/><path d="m92.5 61.9c0.8222 0.8386 1.3803 1.9001 1.6049 3.0529 0.2247 1.1528 0.1061 2.3461-0.3411 3.4322-0.4472 1.086-1.2033 2.0168-2.1745 2.6772-0.9713 0.6604-2.1149 1.0212-3.2893 1.0377-1.2994 0.0073-2.5649-0.4145-3.6-1.2-0.213-0.1505-0.4136-0.3177-0.6-0.5l-21.3-21.3c-0.6712-0.6689-1.2038-1.4638-1.5672-2.3389-0.3634-0.8752-0.5505-1.8135-0.5505-2.7611 0-0.9477 0.1871-1.886 0.5505-2.7611 0.3634-0.8752 0.896-1.67 1.5672-2.3389l3.4-3.3 17.9-17.9c0.8386-0.8223 1.9001-1.3803 3.0529-1.605 1.1528-0.2246 2.3462-0.106 3.4322 0.3412s2.0169 1.2032 2.6772 2.1745c0.6604 0.9712 1.0212 2.1149 1.0377 3.2893-6e-4 1.0976-0.3127 2.1726-0.9 3.1-0.2438 0.4392-0.5466 0.8429-0.9 1.2l-15.8 15.7c-0.5497 0.5608-0.8576 1.3147-0.8576 2.1 0 0.7852 0.3079 1.5392 0.8576 2.1l15.8 15.8z" fill="#25262A"/></svg>
