<svg xmlns="http://www.w3.org/2000/svg" viewBox="0 0 125.3 139.2"><defs><style>  .cls-1{fill:#050706;}</style></defs><g data-name="Layer 2"><g data-name="Layer 1"><path class="cls-1" d="M23.6 5.1A5.1 5.1 0 0 1 28.6 0H78.1A61.3 61.3 0 0 1 97.4 2.9l-8.7 8.8a45.5 45.5 0 0 0-8.7-0.8H29.4A5.8 5.8 0 0 1 23.6 5.1Z"/><path class="cls-1" d="M88.8 74.1l8.9 8.9A64.1 64.1 0 0 1 76.6 86.2H46.8A11.2 11.2 0 0 0 35.6 97.4v35.8a6 6 0 0 1-6 6 6 6 0 0 1-6-6V89.7A14.4 14.4 0 0 1 38 75.3H77.7A48.1 48.1 0 0 0 88.8 74.1Z"/><path class="cls-1" d="M125.3 42.6c0 13.1-4.3 23.6-12 31a5.8 5.8 0 0 1-8.1-0.1l-0.2-0.2a5.7 5.7 0 0 1-0.2-8c5-5.3 7.9-12.7 7.9-22.4 0-10.3-3-17.8-7.8-22.9a5.7 5.7 0 0 1 0.2-7.9h0a5.8 5.8 0 0 1 8-0.2C120.8 19.2 125.3 29.5 125.3 42.6Z"/><path class="cls-1" d="M34.2 18.9v1.2H25V18.9a4.6 4.6 0 1 1 9.2 0Z"/><rect class="cls-1" x="24.9" y="30.9" width="9.4" height="6.8" rx="1.6"/><rect class="cls-1" x="25" y="48.5" width="9.1" height="6.6" rx="1.8"/><path class="cls-1" d="M24.9 65.9h9.2a0 0 0 0 1 0.1 0v0.9A4.8 4.8 0 0 1 30 71.7a4.7 4.7 0 0 1-5.1-4.6Z"/><path class="cls-1" d="M59.1 25.4a4.5 4.5 0 0 1-4.5 4.5H4.5a4.5 4.5 0 0 1 0-8.9h50.2A4.5 4.5 0 0 1 59.1 25.4Z"/><path class="cls-1" d="M59.1 43a4.5 4.5 0 0 1-4.5 4.5H4.5a4.5 4.5 0 0 1 0-8.9h50.2A4.5 4.5 0 0 1 59.1 43Z"/><path class="cls-1" d="M59.1 60.6a4.5 4.5 0 0 1-4.5 4.5H4.5a4.5 4.5 0 0 1 0-8.9h50.2A4.5 4.5 0 0 1 59.1 60.6Z"/><path class="cls-1" d="M92.5 60.9a6 6 0 0 1-4.2 10.2 5.9 5.9 0 0 1-3.6-1.2L62.8 48.1a7.2 7.2 0 0 1 0-10.2l3.4-3.3L84.1 16.7a6 6 0 0 1 10.2 4.2A5.8 5.8 0 0 1 93.4 24l-16.7 17a3 3 0 0 0 0 4.2Z"/><path class="cls-1" d="M92.5 60.9a6 6 0 0 1-4.2 10.2 5.9 5.9 0 0 1-3.6-1.2 4.9 4.9 0 0 1-0.6-0.5L62.8 48.1a7.2 7.2 0 0 1 0-10.2l3.4-3.3L84.1 16.7a6 6 0 0 1 10.2 4.2A5.8 5.8 0 0 1 93.4 24a5.5 5.5 0 0 1-0.9 1.2L76.7 40.9a3 3 0 0 0 0 4.2Z"/></g></g></svg>
