<svg viewBox="0 0 158 176" xmlns="http://www.w3.org/2000/svg"><path d="m29.731 6.4144c0-1.7 0.6738-3.3303 1.8731-4.5324 1.1994-1.2021 2.826-1.8774 4.5221-1.8774h62.413c8.2533-0.091085 16.467 1.1424 24.332 3.6537l-10.962 11.151c-3.613-0.6882-7.283-1.0269-10.961-1.0114h-63.851c-0.9679 0.0017-1.9265-0.1882-2.821-0.5586-0.8945-0.3705-1.7072-0.9143-2.3916-1.6002s-1.2269-1.5005-1.5965-2.397c-0.3696-0.89652-0.559-1.8574-0.5574-2.8274z" fill="#313337"/><path d="m112.05 93.622 11.214 11.201c-8.585 2.871-17.591 4.277-26.641 4.159h-37.589c-3.7569 0-7.3598 1.496-10.016 4.159-2.6565 2.662-4.1489 6.274-4.1489 10.039v45.235c0 2.011-0.7974 3.941-2.2167 5.363-1.4194 1.423-3.3444 2.222-5.3516 2.222s-3.9322-0.799-5.3516-2.222c-1.4193-1.422-2.2167-3.352-2.2167-5.363v-55.033c0-2.393 0.4712-4.763 1.3865-6.974 0.9154-2.21 2.2569-4.218 3.9477-5.908 1.6909-1.6899 3.6978-3.0289 5.9058-3.9402 2.2081-0.9112 4.5738-1.3769 6.9617-1.3702h50.064c4.7287 0.0283 9.4447-0.4978 14.052-1.5677z" fill="#313337"/><path d="m158 53.811c0 16.549-5.424 29.849-15.137 39.192-1.376 1.3155-3.211 2.0398-5.112 2.0186-1.902-0.0213-3.72-0.7865-5.067-2.1323l-0.29-0.2782c-1.355-1.3163-2.141-3.1122-2.191-5.0028-0.049-1.8906 0.642-3.7254 1.926-5.1111 6.307-6.6626 10.003-16.043 10.003-28.268 0-12.996-3.784-22.453-9.826-28.951-1.259-1.3718-1.94-3.1775-1.903-5.0407 0.038-1.8631 0.792-3.6398 2.105-4.9594 1.324-1.34 3.115-2.1135 4.997-2.1583 1.881-0.0448 3.707 0.6427 5.094 1.9181 9.788 9.2289 15.401 22.314 15.401 38.774z" fill="#313337"/><path d="m43.089 23.924v1.4791h-11.554v-1.4791c0-1.539 0.61-3.015 1.6958-4.1033 1.0858-1.0882 2.5584-1.6996 4.0939-1.6996 1.5356 0 3.0082 0.6114 4.094 1.6996 1.0858 1.0883 1.6957 2.5643 1.6957 4.1033h-0.0252z" fill="#313337"/><path d="m41.196 39.007h-7.7953c-1.1146 0-2.0182 0.9056-2.0182 2.0228v4.4881c0 1.1171 0.9036 2.0227 2.0182 2.0227h7.7953c1.1147 0 2.0182-0.9056 2.0182-2.0227v-4.4881c0-1.1172-0.9035-2.0228-2.0182-2.0228z" fill="#313337"/><path d="m40.78 61.333h-6.9754c-1.254 0-2.2705 1.0189-2.2705 2.2757v3.7674c0 1.2568 1.0165 2.2757 2.2705 2.2757h6.9754c1.2539 0 2.2705-1.0189 2.2705-2.2757v-3.7674c0-1.2568-1.0166-2.2757-2.2705-2.2757z" fill="#313337"/><path d="m31.446 83.344h11.706v1.1252c0.043 1.5111-0.477 2.9842-1.4589 4.1318-0.9818 1.1477-2.3549 1.8877-3.8515 2.0756-0.8094 0.0718-1.6249-0.0257-2.3948-0.2864-0.7698-0.2607-1.4772-0.6789-2.0773-1.228-0.6-0.5492-1.0797-1.2173-1.4086-1.9621-0.3289-0.7447-0.4998-1.5498-0.5019-2.3643l-0.0126-1.4918z" fill="#313337"/><path d="m74.598 32.167c0 1.4988-0.594 2.9362-1.6514 3.996s-2.4916 1.6552-3.987 1.6552h-63.321c-1.4954 0-2.9295-0.5954-3.9869-1.6552-1.0574-1.0598-1.6514-2.4972-1.6514-3.996 0-1.4987 0.59404-2.9361 1.6514-3.9959 1.0574-1.0598 2.4915-1.6552 3.9869-1.6552h63.321c1.4954 0 2.9296 0.5954 3.987 1.6552s1.6514 2.4972 1.6514 3.9959z" fill="#313337"/><path d="m74.598 54.367c0 1.4987-0.594 2.9361-1.6514 3.9959s-2.4916 1.6552-3.987 1.6552h-63.321c-1.4954 0-2.9295-0.5954-3.9869-1.6552-1.0574-1.0598-1.6514-2.4972-1.6514-3.9959 0-1.4988 0.59404-2.9362 1.6514-3.996 1.0574-1.0598 2.4915-1.6552 3.9869-1.6552h63.321c1.4954 0 2.9296 0.5954 3.987 1.6552s1.6514 2.4972 1.6514 3.996z" fill="#313337"/><path d="m74.598 76.605c0 1.4988-0.594 2.9362-1.6514 3.996s-2.4916 1.6552-3.987 1.6552h-63.321c-1.4954 0-2.9295-0.5954-3.9869-1.6552-1.0574-1.0598-1.6514-2.4972-1.6514-3.996s0.59404-2.9362 1.6514-3.996c1.0574-1.0598 2.4915-1.6552 3.9869-1.6552h63.321c1.4954 0 2.9296 0.5954 3.987 1.6552s1.6514 2.4972 1.6514 3.996z" fill="#313337"/><path d="m116.63 77.01c1.03 1.0629 1.727 2.405 2.005 3.8605 0.277 1.4555 0.124 2.9606-0.443 4.3295-0.566 1.3689-1.52 2.5416-2.743 3.3733-1.224 0.8317-2.664 1.2859-4.142 1.3066-1.648 0.0012-3.249-0.5457-4.554-1.555l-27.523-27.472c-1.7022-1.7069-2.6585-4.0216-2.6585-6.435s0.9563-4.728 2.6585-6.435l4.2257-4.2225 22.604-22.668c1.06-1.0374 2.402-1.7399 3.857-2.0202s2.961-0.1261 4.33 0.4434 2.54 1.5293 3.37 2.7602c0.829 1.231 1.28 2.679 1.296 4.1643 0.014 1.377-0.358 2.7303-1.072 3.9065l-21.09 21.492c-0.701 0.71-1.0942 1.6686-1.0942 2.6675s0.3932 1.9575 1.0942 2.6676l19.879 19.836z" fill="#313337"/><path d="m116.63 77.01c1.03 1.0629 1.727 2.405 2.005 3.8605 0.277 1.4555 0.124 2.9606-0.443 4.3295-0.566 1.3689-1.52 2.5416-2.743 3.3733-1.224 0.8317-2.664 1.2859-4.142 1.3066-1.648 0.0012-3.249-0.5457-4.554-1.555-0.274-0.1979-0.531-0.4177-0.769-0.6574l-26.754-26.815c-1.7022-1.7069-2.6585-4.0216-2.6585-6.435s0.9563-4.728 2.6585-6.435l4.2257-4.2225 22.604-22.668c1.06-1.0374 2.402-1.7399 3.857-2.0202s2.961-0.1261 4.33 0.4434 2.54 1.5293 3.37 2.7602c0.829 1.231 1.28 2.679 1.296 4.1643 0.014 1.377-0.358 2.7303-1.072 3.9065-0.311 0.5377-0.693 1.031-1.135 1.4666l-19.955 19.937c-0.701 0.7101-1.0942 1.6686-1.0942 2.6675s0.3932 1.9575 1.0942 2.6676l19.879 19.924z" fill="#313337"/></svg>
