<?xml version="1.0" encoding="UTF-8"?><svg fill="none" viewBox="0 0 331 184" xmlns="http://www.w3.org/2000/svg"><g clip-path="url(#a)"><path d="m48.424 173.04h-42.191c-1.4594 0-2.859-0.58-3.8909-1.612-1.0319-1.032-1.6117-2.432-1.6117-3.891 0-1.46 0.57974-2.86 1.6117-3.892 1.0319-1.032 2.4315-1.612 3.8909-1.612h42.191" fill="#ECEDE2"/><path d="m48.424 165.4h-47.694v0.73h47.694v-0.73z" fill="#DFE0CD"/><path d="m48.424 167.25h-47.694v0.731h47.694v-0.731z" fill="#DFE0CD"/><path d="m48.424 169.1h-47.694v0.731h47.694v-0.731z" fill="#DFE0CD"/><path d="m48.424 170.95h-46.233v0.73h46.233v-0.73z" fill="#DFE0CD"/><path d="m48.424 163.55h-46.233v0.73h46.233v-0.73z" fill="#DFE0CD"/><path d="m14.843 161.98h17.548c0 0.515-0.2046 1.01-0.5689 1.374s-0.8584 0.569-1.3736 0.569h-13.652c-0.5152 0-1.0093-0.205-1.3735-0.569-0.3643-0.364-0.569-0.859-0.569-1.374h-0.0109z" fill="#fff"/><path d="m48.424 173.78h-42.191c-1.653 0-3.2384-0.657-4.4073-1.826-1.1689-1.169-1.8256-2.755-1.8256-4.408 0-1.654 0.65667-3.239 1.8256-4.408 1.1689-1.169 2.7542-1.826 4.4073-1.826h42.191c0.1937 0 0.3794 0.077 0.5164 0.214 0.1369 0.137 0.2138 0.322 0.2138 0.516s-0.0769 0.38-0.2138 0.517c-0.137 0.137-0.3227 0.214-0.5164 0.214h-42.191c-1.2657 0-2.4795 0.502-3.3745 1.398-0.89498 0.895-1.3978 2.109-1.3978 3.375s0.50279 2.48 1.3978 3.375 2.1088 1.398 3.3745 1.398h42.191c0.1937 0 0.3794 0.077 0.5164 0.214 0.1369 0.137 0.2138 0.322 0.2138 0.516s-0.0769 0.38-0.2138 0.517c-0.137 0.137-0.3227 0.214-0.5164 0.214z" fill="#1E1E30"/><path d="m301.13 158.43c-0.18 1e-3 -0.355-0.065-0.49-0.185s-0.22-0.285-0.24-0.465l-2.695-24.654c-0.021-0.194 0.035-0.388 0.157-0.54s0.3-0.25 0.493-0.271c0.194-0.021 0.388 0.035 0.54 0.157s0.25 0.299 0.271 0.493l2.695 24.658c0.02 0.192-0.036 0.385-0.158 0.535-0.121 0.151-0.297 0.247-0.489 0.268l-0.084 4e-3z" fill="#1E1E30"/><path d="m304.44 157.7h-0.092c-0.095-0.012-0.187-0.042-0.27-0.09-0.084-0.047-0.157-0.11-0.216-0.186s-0.103-0.162-0.128-0.255c-0.026-0.092-0.033-0.189-0.021-0.284l3.001-24.658c0.024-0.193 0.123-0.37 0.276-0.491 0.154-0.12 0.349-0.175 0.542-0.152 0.194 0.024 0.37 0.123 0.491 0.276 0.12 0.154 0.175 0.349 0.152 0.543l-3.009 24.654c-0.021 0.177-0.107 0.341-0.241 0.459-0.134 0.119-0.307 0.184-0.485 0.184z" fill="#1E1E30"/><path d="m312.55 157.7h-0.088c-0.095-0.012-0.187-0.042-0.271-0.09-0.083-0.047-0.156-0.11-0.215-0.186s-0.103-0.162-0.128-0.255c-0.026-0.092-0.033-0.189-0.021-0.284l3.008-24.654c0.012-0.096 0.042-0.189 0.089-0.273 0.048-0.084 0.111-0.158 0.187-0.218s0.163-0.104 0.256-0.13 0.19-0.033 0.286-0.022c0.096 0.012 0.189 0.042 0.273 0.089 0.084 0.048 0.158 0.111 0.218 0.187s0.104 0.163 0.13 0.256 0.033 0.19 0.022 0.286l-3.016 24.651c-0.022 0.178-0.108 0.342-0.243 0.461-0.134 0.118-0.308 0.183-0.487 0.182z" fill="#1E1E30"/><path d="m320.47 146.04h-22.328v27.777h22.328v-27.777z" fill="#28F3BB"/><path d="m302.63 146.56h-3.775v26.714h3.775v-26.714z" fill="#1BDDA1"/><path d="m314.07 146.56h-1.281v26.896h1.281v-26.896z" fill="#fff"/><g fill="#fff" opacity=".56"><path d="m315.81 146.56h-0.632v26.896h0.632v-26.896z"/><path d="m317.82 146.56h-0.632v26.896h0.632v-26.896z"/></g><path d="m66.089 165.27c-1.4797 0-2.9262-0.439-4.1565-1.261-1.2304-0.822-2.1893-1.991-2.7556-3.358-0.5662-1.367-0.7144-2.872-0.4257-4.324 0.2887-1.451 1.0012-2.784 2.0475-3.831 1.0463-1.046 2.3794-1.759 3.8307-2.048 1.4513-0.288 2.9556-0.14 4.3227 0.426 1.367 0.566 2.5355 1.526 3.3576 2.756 0.8221 1.231 1.2609 2.677 1.2609 4.157-2e-3 1.984-0.7908 3.886-2.1935 5.289-1.4026 1.403-3.3045 2.192-5.2881 2.194zm0-11.321c-0.7576 0-1.4981 0.225-2.128 0.646s-1.1208 1.019-1.4107 1.719-0.3657 1.47-0.218 2.213c0.1478 0.744 0.5126 1.426 1.0483 1.962s1.2182 0.9 1.9611 1.048c0.743 0.148 1.5132 0.072 2.2131-0.218 0.6998-0.29 1.298-0.781 1.7189-1.411s0.6455-1.37 0.6455-2.128c-0.0019-1.015-0.4063-1.987-1.1244-2.704s-1.6912-1.12-2.7058-1.12v-7e-3z" fill="#3F3E3E"/><path d="m66.114 166.16c-1.5888 0-3.1419-0.471-4.4629-1.354s-2.3506-2.138-2.9586-3.606-0.767-3.083-0.4571-4.642c0.31-1.558 1.075-2.99 2.1985-4.114 1.1234-1.123 2.5547-1.888 4.1129-2.198 1.5583-0.31 3.1734-0.151 4.6412 0.457 1.4679 0.608 2.7224 1.638 3.6051 2.959s1.3538 2.874 1.3538 4.464c0 2.13-0.8463 4.174-2.3528 5.681-1.5065 1.506-3.5496 2.353-5.6801 2.353zm0-14.973c-1.3721 0-2.7134 0.407-3.8543 1.169-1.1409 0.763-2.0301 1.846-2.5551 3.114-0.5251 1.268-0.6625 2.663-0.3948 4.009s0.9284 2.583 1.8986 3.553 2.2064 1.631 3.5521 1.899c1.3458 0.268 2.7407 0.13 4.0084-0.395 1.2676-0.525 2.3511-1.414 3.1134-2.556 0.7623-1.141 1.1692-2.482 1.1692-3.854 0-1.841-0.7309-3.606-2.0319-4.907-1.3011-1.301-3.0657-2.032-4.9056-2.032zm0 11.321c-0.8666 0-1.7137-0.257-2.4343-0.739-0.7205-0.481-1.2821-1.166-1.6138-1.966-0.3316-0.801-0.4184-1.682-0.2493-2.532 0.1691-0.851 0.5864-1.631 1.1991-2.244 0.6128-0.613 1.3935-1.031 2.2435-1.2 0.8499-0.169 1.7309-0.082 2.5315 0.25 0.8007 0.331 1.485 0.893 1.9664 1.614 0.4815 0.72 0.7385 1.568 0.7385 2.435 0 1.162-0.4617 2.276-1.2834 3.098s-1.9361 1.284-3.0982 1.284zm0-7.669c-0.65 0-1.2853 0.193-1.8257 0.554s-0.9616 0.874-1.2104 1.475c-0.2487 0.6-0.3138 1.261-0.187 1.899 0.1268 0.637 0.4398 1.223 0.8994 1.683 0.4596 0.459 1.0451 0.772 1.6826 0.899 0.6374 0.127 1.2982 0.062 1.8987-0.187 0.6004-0.249 1.1137-0.67 1.4748-1.21 0.361-0.541 0.5538-1.176 0.5538-1.826 0-0.872-0.3462-1.708-0.9625-2.325-0.6163-0.616-1.4522-0.962-2.3237-0.962z" fill="#1E1E30"/><path d="m63.887 141.93h-20.447c-1.097 0-1.9863 0.889-1.9863 1.987v26.998c0 1.098 0.8893 1.987 1.9863 1.987h20.447c1.097 0 1.9864-0.889 1.9864-1.987v-26.998c0-1.098-0.8894-1.987-1.9864-1.987z" fill="#3F3E3E"/><path d="m66.089 148.11v23.935c0 0.526-0.2092 1.032-0.5817 1.404-0.3726 0.373-0.8778 0.582-1.4046 0.582h-20.447c-0.261 1e-3 -0.5195-0.05-0.7607-0.15s-0.4604-0.246-0.6449-0.431c-0.1846-0.184-0.3309-0.403-0.4305-0.645-0.0997-0.241-0.1507-0.499-0.1503-0.76v-4.419c1.714 0.933 3.647 1.39 5.5975 1.322 3.7134-0.135 7.2078-2.023 9.8586-4.62 2.6509-2.597 4.5642-5.865 6.1781-9.21 1.1092-2.26 2.0407-4.603 2.7859-7.008z" fill="#302F2F"/><g fill="#fff" opacity=".15"><path d="m285.53 128.91h-4.565v-7.702h13.562c0.145 0 0.284 0.058 0.387 0.16 0.103 0.103 0.16 0.243 0.16 0.388s-0.057 0.284-0.16 0.387-0.242 0.161-0.387 0.161h-12.455v5.51h3.458c0.145 0 0.284 0.058 0.387 0.161s0.16 0.242 0.16 0.387-0.057 0.285-0.16 0.388c-0.103 0.102-0.242 0.16-0.387 0.16z"/><path d="m289.12 128.91h-1.975c-0.146 0-0.285-0.058-0.388-0.161-0.102-0.102-0.16-0.242-0.16-0.387s0.058-0.284 0.16-0.387c0.103-0.103 0.242-0.161 0.388-0.161h1.975c0.145 0 0.285 0.058 0.387 0.161 0.103 0.103 0.161 0.242 0.161 0.387s-0.058 0.285-0.161 0.387c-0.102 0.103-0.242 0.161-0.387 0.161z"/><path d="m290.64 128.91h-0.04c-0.145 0-0.284-0.058-0.387-0.161-0.103-0.102-0.16-0.242-0.16-0.387s0.057-0.284 0.16-0.387 0.242-0.161 0.387-0.161h0.04c0.146 0 0.285 0.058 0.388 0.161 0.102 0.103 0.16 0.242 0.16 0.387s-0.058 0.285-0.16 0.387c-0.103 0.103-0.242 0.161-0.388 0.161z"/><path d="m300.24 128.91h-8.062c-0.146 0-0.285-0.058-0.388-0.16-0.102-0.103-0.16-0.243-0.16-0.388s0.058-0.284 0.16-0.387c0.103-0.103 0.242-0.161 0.388-0.161h6.966v-5.51h-2.417c-0.145 0-0.284-0.058-0.387-0.161s-0.16-0.242-0.16-0.387 0.057-0.285 0.16-0.388c0.103-0.102 0.242-0.16 0.387-0.16h3.531l-0.018 7.702z"/><path d="m291.01 122.31h-19.261v-7.688h19.261v7.688zm-18.169-1.096h17.073v-5.496h-17.07l-3e-3 5.496z"/><path d="m291.23 46.197h-0.106c-0.145 0-0.285-0.0577-0.387-0.1605-0.103-0.1027-0.161-0.242-0.161-0.3873s0.058-0.2846 0.161-0.3874c0.102-0.1027 0.242-0.1604 0.387-0.1604h0.106c0.145 0 0.284 0.0577 0.387 0.1604 0.103 0.1028 0.16 0.2421 0.16 0.3874s-0.057 0.2846-0.16 0.3873c-0.103 0.1028-0.242 0.1605-0.387 0.1605z"/><path d="m295.22 46.197h-2.191c-0.145 0-0.285-0.0577-0.387-0.1604-0.103-0.1027-0.161-0.2421-0.161-0.3874 0-0.1452 0.058-0.2846 0.161-0.3873 0.102-0.1027 0.242-0.1605 0.387-0.1605h1.095v-5.4998h-17.073v5.4998h9.942c0.146 0 0.285 0.0578 0.388 0.1605 0.102 0.1027 0.16 0.2421 0.16 0.3873 0 0.1453-0.058 0.2847-0.16 0.3874-0.103 0.1027-0.242 0.1604-0.388 0.1604h-11.038v-7.691h19.265v7.691z"/><path d="m289.64 46.197h-0.975c-0.145 0-0.284-0.0577-0.387-0.1605-0.103-0.1027-0.161-0.242-0.161-0.3873s0.058-0.2846 0.161-0.3874c0.103-0.1027 0.242-0.1604 0.387-0.1604h0.975c0.145 0 0.285 0.0577 0.387 0.1604 0.103 0.1028 0.161 0.2421 0.161 0.3874s-0.058 0.2846-0.161 0.3873c-0.102 0.1028-0.242 0.1605-0.387 0.1605z"/><path d="m280.52 59.384h-4.564v-7.691h13.561c0.146 0 0.285 0.0577 0.388 0.1604 0.102 0.1028 0.16 0.2421 0.16 0.3874s-0.058 0.2846-0.16 0.3873c-0.103 0.1028-0.242 0.1605-0.388 0.1605h-12.465v5.4998h3.468c0.146 0 0.285 0.0577 0.388 0.1605 0.102 0.1027 0.16 0.242 0.16 0.3873s-0.058 0.2846-0.16 0.3873c-0.103 0.1028-0.242 0.1605-0.388 0.1605z"/><path d="m284.1 59.384h-1.976c-0.145 0-0.284-0.0577-0.387-0.1604-0.103-0.1028-0.16-0.2421-0.16-0.3874s0.057-0.2846 0.16-0.3873c0.103-0.1028 0.242-0.1605 0.387-0.1605h1.976c0.145 0 0.284 0.0577 0.387 0.1605 0.103 0.1027 0.16 0.242 0.16 0.3873s-0.057 0.2846-0.16 0.3874c-0.103 0.1027-0.242 0.1604-0.387 0.1604z"/><path d="m285.61 59.384h-0.041c-0.145 0-0.284-0.0577-0.387-0.1604-0.103-0.1028-0.16-0.2421-0.16-0.3874s0.057-0.2846 0.16-0.3873c0.103-0.1028 0.242-0.1605 0.387-0.1605h0.041c0.145 0 0.284 0.0577 0.387 0.1605 0.103 0.1027 0.16 0.242 0.16 0.3873s-0.057 0.2846-0.16 0.3874c-0.103 0.1027-0.242 0.1604-0.387 0.1604z"/><path d="m295.22 59.384h-8.062c-0.146 0-0.285-0.0577-0.388-0.1605-0.102-0.1027-0.16-0.242-0.16-0.3873s0.058-0.2846 0.16-0.3873c0.103-0.1028 0.242-0.1605 0.388-0.1605h6.966v-5.4998h-2.417c-0.145 0-0.284-0.0577-0.387-0.1605-0.103-0.1027-0.161-0.242-0.161-0.3873s0.058-0.2846 0.161-0.3874c0.103-0.1027 0.242-0.1604 0.387-0.1604h3.531l-0.018 7.691z"/><path d="m285.99 52.789h-19.264v-7.6873h19.264v7.6873zm-18.169-1.0955h17.074v-5.4962h-17.074v5.4962z"/><path d="m52.382 63.102h-0.1059c-0.1453 0-0.2846-0.0577-0.3873-0.1605-0.1027-0.1027-0.1604-0.242-0.1604-0.3873s0.0577-0.2846 0.1604-0.3874c0.1027-0.1027 0.242-0.1604 0.3873-0.1604h0.1059c0.1452 0 0.2846 0.0577 0.3873 0.1604 0.1027 0.1028 0.1604 0.2421 0.1604 0.3874s-0.0577 0.2846-0.1604 0.3873c-0.1027 0.1028-0.2421 0.1605-0.3873 0.1605z"/><path d="m56.373 63.102h-2.1908c-0.1452 0-0.2845-0.0577-0.3873-0.1604-0.1027-0.1027-0.1604-0.2421-0.1604-0.3874 0-0.1452 0.0577-0.2846 0.1604-0.3873 0.1028-0.1027 0.2421-0.1604 0.3873-0.1604h1.0954v-5.4999h-17.074v5.4999h9.928c0.1452 0 0.2845 0.0577 0.3873 0.1604 0.1027 0.1027 0.1604 0.2421 0.1604 0.3873 0 0.1453-0.0577 0.2847-0.1604 0.3874-0.1028 0.1027-0.2421 0.1604-0.3873 0.1604h-11.023v-7.691h19.264v7.691z"/><path d="m50.797 63.102h-0.9749c-0.1453 0-0.2846-0.0577-0.3873-0.1605-0.1027-0.1027-0.1604-0.242-0.1604-0.3873s0.0577-0.2846 0.1604-0.3874c0.1027-0.1027 0.242-0.1604 0.3873-0.1604h0.9749c0.1452 0 0.2845 0.0577 0.3873 0.1604 0.1027 0.1028 0.1604 0.2421 0.1604 0.3874s-0.0577 0.2846-0.1604 0.3873c-0.1028 0.1028-0.2421 0.1605-0.3873 0.1605z"/><path d="m41.673 76.289h-4.5642v-7.691h13.561c0.1452 0 0.2845 0.0577 0.3872 0.1604 0.1027 0.1028 0.1605 0.2421 0.1605 0.3874s-0.0578 0.2846-0.1605 0.3873c-0.1027 0.1028-0.242 0.1605-0.3872 0.1605h-12.466v5.4998h3.4688c0.1452 0 0.2845 0.0577 0.3873 0.1605 0.1027 0.1027 0.1604 0.242 0.1604 0.3873s-0.0577 0.2846-0.1604 0.3874c-0.1028 0.1027-0.2421 0.1604-0.3873 0.1604z"/><path d="m45.251 76.289h-1.9754c-0.1453 0-0.2846-0.0577-0.3873-0.1604-0.1027-0.1028-0.1604-0.2421-0.1604-0.3874s0.0577-0.2846 0.1604-0.3873c0.1027-0.1028 0.242-0.1605 0.3873-0.1605h1.9754c0.1452 0 0.2845 0.0577 0.3873 0.1605 0.1027 0.1027 0.1604 0.242 0.1604 0.3873s-0.0577 0.2846-0.1604 0.3874c-0.1028 0.1027-0.2421 0.1604-0.3873 0.1604z"/><path d="m46.737 76.289c-0.1452 0-0.2845-0.0577-0.3873-0.1604-0.1027-0.1028-0.1604-0.2421-0.1604-0.3874s0.0577-0.2846 0.1604-0.3873c0.1028-0.1028 0.2421-0.1605 0.3873-0.1605h0.0402c0.1453 0 0.2846 0.0577 0.3873 0.1605 0.1027 0.1027 0.1604 0.242 0.1604 0.3873s-0.0577 0.2846-0.1604 0.3874c-0.1027 0.1027-0.242 0.1604-0.3873 0.1604h-0.0402z"/><path d="m56.373 76.289h-8.0621c-0.1453 0-0.2846-0.0577-0.3873-0.1604-0.1027-0.1028-0.1604-0.2421-0.1604-0.3874s0.0577-0.2846 0.1604-0.3873c0.1027-0.1028 0.242-0.1605 0.3873-0.1605h6.9667v-5.4998h-2.4172c-0.1452 0-0.2846-0.0577-0.3873-0.1605-0.1027-0.1027-0.1604-0.242-0.1604-0.3873s0.0577-0.2846 0.1604-0.3874c0.1027-0.1027 0.2421-0.1604 0.3873-0.1604h3.5308l-0.0182 7.691z"/><path d="m47.142 69.694h-19.264v-7.6874h19.264v7.6874zm-18.169-1.0956h17.074v-5.4962h-17.074v5.4962z"/><path d="m182.31 7.691h-0.106c-0.145 0-0.284-0.05771-0.387-0.16044s-0.161-0.24207-0.161-0.38735 0.058-0.28462 0.161-0.38735 0.242-0.16044 0.387-0.16044h0.106c0.145 0 0.285 0.05771 0.387 0.16044 0.103 0.10273 0.161 0.24207 0.161 0.38735s-0.058 0.28462-0.161 0.38735c-0.102 0.10273-0.242 0.16044-0.387 0.16044z"/><path d="m186.3 7.691h-2.191c-0.145 0-0.284-0.05771-0.387-0.16044s-0.161-0.24207-0.161-0.38735 0.058-0.28462 0.161-0.38735 0.242-0.16044 0.387-0.16044h1.096v-5.4998h-17.074v5.4998h9.928c0.145 0 0.285 0.05771 0.387 0.16044 0.103 0.10273 0.161 0.24207 0.161 0.38735s-0.058 0.28462-0.161 0.38735c-0.102 0.10273-0.242 0.16044-0.387 0.16044h-11.023v-7.691h19.264v7.691z"/><path d="m180.74 7.691h-0.975c-0.146 0-0.285-0.05771-0.388-0.16044-0.102-0.10273-0.16-0.24207-0.16-0.38735s0.058-0.28462 0.16-0.38735c0.103-0.10273 0.242-0.16044 0.388-0.16044h0.975c0.145 0 0.284 0.05771 0.387 0.16044s0.16 0.24207 0.16 0.38735-0.057 0.28462-0.16 0.38735-0.242 0.16044-0.387 0.16044z"/><path d="m171.61 20.878h-4.564v-7.691h13.547c0.145 0 0.284 0.0577 0.387 0.1604 0.103 0.1028 0.16 0.2421 0.16 0.3874s-0.057 0.2846-0.16 0.3873c-0.103 0.1028-0.242 0.1605-0.387 0.1605h-12.466v5.4998h3.483c0.146 0 0.285 0.0577 0.388 0.1605 0.102 0.1027 0.16 0.242 0.16 0.3873s-0.058 0.2846-0.16 0.3874c-0.103 0.1027-0.242 0.1604-0.388 0.1604z"/><path d="m175.18 20.878h-1.975c-0.146 0-0.285-0.0577-0.388-0.1605-0.102-0.1027-0.16-0.242-0.16-0.3873s0.058-0.2846 0.16-0.3874c0.103-0.1027 0.242-0.1604 0.388-0.1604h1.975c0.145 0 0.285 0.0577 0.387 0.1604 0.103 0.1028 0.161 0.2421 0.161 0.3874s-0.058 0.2846-0.161 0.3873c-0.102 0.1028-0.242 0.1605-0.387 0.1605z"/><path d="m176.68 20.878h-0.04c-0.145 0-0.285-0.0577-0.387-0.1605-0.103-0.1027-0.161-0.242-0.161-0.3873s0.058-0.2846 0.161-0.3874c0.102-0.1027 0.242-0.1604 0.387-0.1604h0.04c0.145 0 0.285 0.0577 0.387 0.1604 0.103 0.1028 0.161 0.2421 0.161 0.3874s-0.058 0.2846-0.161 0.3873c-0.102 0.1028-0.242 0.1605-0.387 0.1605z"/><path d="m186.3 20.878h-8.062c-0.145 0-0.285-0.0577-0.387-0.1604-0.103-0.1028-0.161-0.2421-0.161-0.3874s0.058-0.2846 0.161-0.3873c0.102-0.1028 0.242-0.1605 0.387-0.1605h6.967v-5.4998h-2.418c-0.145 0-0.284-0.0577-0.387-0.1605-0.103-0.1027-0.16-0.242-0.16-0.3873s0.057-0.2846 0.16-0.3874c0.103-0.1027 0.242-0.1604 0.387-0.1604h3.531l-0.018 7.691z"/><path d="m177.07 14.283h-19.264v-7.6691h19.264v7.6691zm-18.169-1.0956h17.074v-5.4779h-17.074v5.4779z"/></g><path d="m191.5 158.48h-45.62l0.442-3.02h44.736l0.442 3.02z" fill="#A1A1C4"/><path d="m193.94 177.73h-51.034c-0.672-1e-3 -1.333-0.166-1.926-0.481-0.594-0.315-1.101-0.77-1.477-1.326-0.377-0.557-0.612-1.196-0.685-1.864-0.072-0.668 0.02-1.344 0.268-1.968l9.461-23.737c0.042-0.105 0.107-0.199 0.192-0.275 0.084-0.075 0.185-0.13 0.294-0.16l19.198-5.273c0.127-0.037 0.261-0.037 0.387 0l19.199 5.262c0.109 0.03 0.21 0.085 0.294 0.16 0.084 0.076 0.15 0.17 0.192 0.275l9.456 23.737c0.248 0.624 0.34 1.299 0.267 1.967-0.073 0.667-0.308 1.306-0.685 1.862-0.376 0.556-0.883 1.011-1.476 1.326-0.593 0.314-1.254 0.48-1.925 0.48v0.015zm-44.181-28.485-9.325 23.405c-0.165 0.403-0.227 0.84-0.182 1.273 0.044 0.433 0.195 0.849 0.438 1.21 0.244 0.36 0.572 0.656 0.956 0.86 0.385 0.204 0.814 0.31 1.249 0.309h51.045c0.435 1e-3 0.864-0.105 1.249-0.309 0.384-0.204 0.712-0.5 0.956-0.86 0.243-0.361 0.393-0.777 0.438-1.21s-0.018-0.87-0.182-1.273l-9.322-23.405-18.654-5.113-18.666 5.113z" fill="#1E1E30"/><path d="m86.668 30.158h160.95c1.656 0 3.244 0.658 4.415 1.8291s1.828 2.7595 1.828 4.4158v113.39c0 0.779-0.153 1.55-0.451 2.27-0.299 0.72-0.736 1.374-1.287 1.924-0.551 0.551-1.205 0.988-1.925 1.286s-1.491 0.451-2.27 0.45h-161.57c-1.5727 0-3.0809-0.625-4.193-1.737-1.112-1.112-1.7368-2.621-1.7368-4.193v-113.39c0-1.6556 0.6574-3.2435 1.8275-4.4145s2.7573-1.8294 4.4126-1.8304z" fill="#546B76"/><path d="m253.66 36.399v3.8492c0-1.6556-0.657-3.2435-1.827-4.4145s-2.758-1.8294-4.413-1.8304h-160.95c-1.6557 1e-3 -3.2433 0.6593-4.414 1.8302s-1.8288 2.7587-1.8298 4.4147v-3.8492c1e-3 -1.6556 0.6592-3.243 1.83-4.4134 1.1709-1.1703 2.7584-1.8278 4.4138-1.8278h160.95c0.82 0 1.631 0.1615 2.388 0.4751 0.757 0.3137 1.445 0.7734 2.025 1.3529 0.579 0.5796 1.039 1.2676 1.352 2.0248 0.314 0.7572 0.475 1.5688 0.475 2.3884z" fill="#7997A3"/><path d="m276.01 172.98c0-2.292 0.911-4.49 2.531-6.11s3.817-2.531 6.108-2.531c2.292 0 4.489 0.911 6.109 2.531s2.53 3.818 2.53 6.11" fill="#CACAD8"/><path d="m193.94 177h-51.034c-0.553 0-1.097-0.136-1.585-0.395-0.489-0.259-0.906-0.633-1.216-1.091s-0.503-0.984-0.562-1.534 0.017-1.105 0.223-1.618l9.46-23.738 19.199-5.274 19.198 5.288 9.457 23.738c0.203 0.513 0.277 1.067 0.216 1.614-0.061 0.548-0.254 1.072-0.564 1.528-0.309 0.456-0.725 0.829-1.212 1.087s-1.029 0.394-1.58 0.395z" fill="#CACAD8"/><path d="m253.86 135.27v14.52c0 0.78-0.153 1.551-0.451 2.271-0.299 0.72-0.736 1.374-1.287 1.924-0.551 0.551-1.205 0.988-1.925 1.286s-1.491 0.451-2.27 0.45h-161.57c-1.5727 0-3.0809-0.625-4.193-1.737-1.112-1.112-1.7368-2.621-1.7368-4.194v-14.52h173.43z" fill="#CACAD8"/><path d="m245.08 40.109h-155.73v86.625h155.73v-86.625z" fill="#B4E4F9"/><path d="m156.05 126.73h-3.556l21.908-86.625h3.556l-21.908 86.625z" fill="#fff" opacity=".59"/><path d="m148.23 126.73h-3.556l21.908-86.625h3.556l-21.908 86.625z" fill="#fff" opacity=".3"/><path d="m171.95 126.73h-10.859l21.908-86.625h10.859l-21.908 86.625z" fill="#fff"/><path d="m184.76 35.789h-16.321c-0.436 0-0.854-0.1731-1.162-0.4813s-0.481-0.7262-0.481-1.162c0-0.4359 0.173-0.8539 0.481-1.1621s0.726-0.4813 1.162-0.4813h16.321c0.436 0 0.854 0.1731 1.162 0.4813s0.481 0.7262 0.481 1.1621c0 0.4358-0.173 0.8538-0.481 1.162s-0.726 0.4813-1.162 0.4813z" fill="#7997A3"/><path d="m220.96 35.789h-7.555c-0.436 0-0.854-0.1731-1.162-0.4813s-0.481-0.7262-0.481-1.162c0-0.4359 0.173-0.8539 0.481-1.1621s0.726-0.4813 1.162-0.4813h7.555c0.435 0 0.853 0.1731 1.162 0.4813 0.308 0.3082 0.481 0.7262 0.481 1.1621 0 0.4358-0.173 0.8538-0.481 1.162-0.309 0.3082-0.727 0.4813-1.162 0.4813z" fill="#7997A3"/><path d="m325.36 173.45h-317.43c-2.7103 0-4.9074 2.198-4.9074 4.908 0 2.711 2.1971 4.909 4.9074 4.909h317.43c2.711 0 4.908-2.198 4.908-4.909 0-2.71-2.197-4.908-4.908-4.908z" fill="#FFCCC0"/><path d="m330.27 178.58c-1e-3 1.302-0.519 2.55-1.439 3.47s-2.167 1.438-3.469 1.439h-317.43c-1.3015 0-2.5497-0.517-3.47-1.438-0.92031-0.92-1.4373-2.169-1.4373-3.471-0.00139-0.862 0.22672-1.709 0.66089-2.454 0.42957 0.747 1.0483 1.367 1.7939 1.797 0.74555 0.431 1.5915 0.658 2.4526 0.657h317.43c0.861-1e-3 1.707-0.229 2.453-0.66 0.746-0.43 1.365-1.049 1.798-1.794 0.433 0.745 0.659 1.593 0.657 2.454z" fill="#F29681"/><path d="m244.09 179.64h-24.317c-0.339 0-0.664-0.135-0.904-0.375-0.24-0.239-0.374-0.565-0.374-0.904s0.134-0.664 0.374-0.903c0.24-0.24 0.565-0.375 0.904-0.375h24.317c0.339 0 0.664 0.135 0.904 0.375 0.24 0.239 0.374 0.564 0.374 0.903s-0.134 0.665-0.374 0.904c-0.24 0.24-0.565 0.375-0.904 0.375z" fill="#F29681"/><path d="m257.2 179.64h-6.061c-0.339 0-0.664-0.135-0.904-0.375-0.24-0.239-0.374-0.565-0.374-0.904s0.134-0.664 0.374-0.903c0.24-0.24 0.565-0.375 0.904-0.375h6.061c0.339 0 0.664 0.135 0.903 0.375 0.24 0.239 0.375 0.564 0.375 0.903s-0.135 0.665-0.375 0.904c-0.239 0.24-0.564 0.375-0.903 0.375z" fill="#F29681"/><path d="m154.19 183.27h-24.318c-0.339 0-0.664-0.135-0.904-0.375-0.239-0.239-0.374-0.565-0.374-0.904s0.135-0.664 0.374-0.903c0.24-0.24 0.565-0.375 0.904-0.375h24.318c0.339 0 0.664 0.135 0.904 0.375 0.239 0.239 0.374 0.564 0.374 0.903s-0.135 0.665-0.374 0.904c-0.24 0.24-0.565 0.375-0.904 0.375z" fill="#DD7B6B"/><path d="m167.3 183.27h-6.061c-0.339 0-0.664-0.135-0.904-0.375-0.239-0.239-0.374-0.565-0.374-0.904s0.135-0.664 0.374-0.903c0.24-0.24 0.565-0.375 0.904-0.375h6.061c0.339 0 0.664 0.135 0.904 0.375 0.239 0.239 0.374 0.564 0.374 0.903s-0.135 0.665-0.374 0.904c-0.24 0.24-0.565 0.375-0.904 0.375z" fill="#DD7B6B"/><path d="m30.186 183.27h-24.321c-0.33893 0-0.66399-0.135-0.90365-0.375-0.23967-0.239-0.37431-0.565-0.37431-0.904s0.13464-0.664 0.37431-0.903c0.23966-0.24 0.56472-0.375 0.90365-0.375h24.321c0.3389 0 0.664 0.135 0.9037 0.375 0.2396 0.239 0.3743 0.564 0.3743 0.903s-0.1347 0.665-0.3743 0.904c-0.2397 0.24-0.5648 0.375-0.9037 0.375z" fill="#DD7B6B"/><path d="m37.244 183.27c-0.3389 0-0.664-0.135-0.9036-0.375-0.2397-0.239-0.3743-0.565-0.3743-0.904s0.1346-0.664 0.3743-0.903c0.2396-0.24 0.5647-0.375 0.9036-0.375h6.0612c0.339 0 0.664 0.135 0.9037 0.375 0.2397 0.239 0.3743 0.564 0.3743 0.903s-0.1346 0.665-0.3743 0.904c-0.2397 0.24-0.5647 0.375-0.9037 0.375h-6.0612z" fill="#DD7B6B"/><path d="m313.73 183.27h-24.318c-0.339 0-0.664-0.135-0.904-0.375-0.239-0.239-0.374-0.565-0.374-0.904s0.135-0.664 0.374-0.903c0.24-0.24 0.565-0.375 0.904-0.375h24.318c0.339 0 0.664 0.135 0.904 0.375 0.239 0.239 0.374 0.564 0.374 0.903s-0.135 0.665-0.374 0.904c-0.24 0.24-0.565 0.375-0.904 0.375z" fill="#DD7B6B"/><path d="m326.84 183.27h-6.065c-0.339 0-0.664-0.135-0.903-0.375-0.24-0.239-0.375-0.565-0.375-0.904s0.135-0.664 0.375-0.903c0.239-0.24 0.564-0.375 0.903-0.375h6.065c0.339 0 0.664 0.135 0.904 0.375 0.239 0.239 0.374 0.564 0.374 0.903s-0.135 0.665-0.374 0.904c-0.24 0.24-0.565 0.375-0.904 0.375z" fill="#DD7B6B"/><path d="m50.677 142h-2.0703v31.45h2.0703v-31.45z" fill="#fff"/><path d="m53.123 142h-0.9932v31.45h0.9932v-31.45z" fill="#fff" opacity=".39"/><path d="m59.546 151.79c-0.2702 0-0.5293-0.107-0.7203-0.298-0.1911-0.191-0.2984-0.45-0.2984-0.721v-8.582h2.0374v8.582c0 0.271-0.1073 0.53-0.2983 0.721-0.1911 0.191-0.4502 0.298-0.7204 0.298z" fill="#DD9742"/><path d="m64.596 142.74c-0.0208 0.462-0.219 0.898-0.5533 1.218-0.3343 0.319-0.7789 0.498-1.2413 0.498-0.4625 0-0.9071-0.179-1.2414-0.498-0.3342-0.32-0.5324-0.756-0.5533-1.218" fill="#DD9742"/><path d="m45.079 146.13h-0.0036c-0.6615 0-1.1977 0.536-1.1977 1.198v6.661c0 0.661 0.5362 1.198 1.1977 1.198h0.0036c0.6615 0 1.1977-0.537 1.1977-1.198v-6.661c0-0.662-0.5362-1.198-1.1977-1.198z" fill="#fff" opacity=".23"/><path d="m246 73.189c-0.242 0-0.474-0.0962-0.645-0.2675-0.171-0.1712-0.268-0.4034-0.268-0.6455v-18.347c0-0.2422 0.097-0.4744 0.268-0.6456s0.403-0.2674 0.645-0.2674 0.474 0.0962 0.646 0.2674c0.171 0.1712 0.267 0.4034 0.267 0.6456v18.347c0 0.2421-0.096 0.4743-0.267 0.6455-0.172 0.1713-0.404 0.2675-0.646 0.2675z" fill="#3C5159"/><path d="m253.93 132.07v3.199h-173.44s-1.3875-8.954 0.2921-8.651c29.553 5.332 173.15 5.452 173.15 5.452z" fill="#3C5159"/><path d="m230.95 132.22c0.502 0 0.909-0.407 0.909-0.909 0-0.503-0.407-0.91-0.909-0.91s-0.909 0.407-0.909 0.91c0 0.502 0.407 0.909 0.909 0.909z" fill="#3C5159"/><path d="m232.66 130.94c0.149 0 0.27-0.121 0.27-0.27 0-0.15-0.121-0.271-0.27-0.271s-0.27 0.121-0.27 0.271c0 0.149 0.121 0.27 0.27 0.27z" fill="#3C5159"/><path d="m231.33 129.83c0.15 0 0.271-0.121 0.271-0.27s-0.121-0.27-0.271-0.27c-0.149 0-0.27 0.121-0.27 0.27s0.121 0.27 0.27 0.27z" fill="#3C5159"/><path d="m228.73 130.16c0.345 0 0.625-0.28 0.625-0.625s-0.28-0.624-0.625-0.624c-0.344 0-0.624 0.279-0.624 0.624s0.28 0.625 0.624 0.625z" fill="#3C5159"/><path d="m227.84 131.93c0.305 0 0.551-0.246 0.551-0.551s-0.246-0.551-0.551-0.551c-0.304 0-0.551 0.246-0.551 0.551s0.247 0.551 0.551 0.551z" fill="#3C5159"/><path d="m226.27 130.4c0.155 0 0.281-0.126 0.281-0.282 0-0.155-0.126-0.281-0.281-0.281-0.156 0-0.281 0.126-0.281 0.281 0 0.156 0.125 0.282 0.281 0.282z" fill="#3C5159"/><path d="m226.9 129.21c0.19 0 0.343-0.154 0.343-0.344 0-0.189-0.153-0.343-0.343-0.343s-0.343 0.154-0.343 0.343c0 0.19 0.153 0.344 0.343 0.344z" fill="#3C5159"/><path d="m224.21 131.58c0.327 0 0.592-0.265 0.592-0.592s-0.265-0.591-0.592-0.591c-0.326 0-0.591 0.264-0.591 0.591s0.265 0.592 0.591 0.592z" fill="#3C5159"/><path d="m234.76 130.57c0.203 0 0.369-0.165 0.369-0.369s-0.166-0.369-0.369-0.369c-0.204 0-0.369 0.165-0.369 0.369s0.165 0.369 0.369 0.369z" fill="#3C5159"/><path d="m233.37 129.29c0.117 0 0.212-0.095 0.212-0.212s-0.095-0.212-0.212-0.212-0.212 0.095-0.212 0.212 0.095 0.212 0.212 0.212z" fill="#3C5159"/><path d="m235 128.68c0.203 0 0.368-0.165 0.368-0.369s-0.165-0.369-0.368-0.369c-0.204 0-0.369 0.165-0.369 0.369s0.165 0.369 0.369 0.369z" fill="#3C5159"/><path d="m233.3 130.16c0.142 0 0.256-0.115 0.256-0.256s-0.114-0.256-0.256-0.256c-0.141 0-0.255 0.115-0.255 0.256s0.114 0.256 0.255 0.256z" fill="#3C5159"/><path d="m232.04 128.6c0.159 0 0.289-0.13 0.289-0.289s-0.13-0.289-0.289-0.289-0.288 0.13-0.288 0.289 0.129 0.289 0.288 0.289z" fill="#3C5159"/><path d="m230.22 128.32c0.234 0 0.423-0.19 0.423-0.424s-0.189-0.423-0.423-0.423-0.424 0.189-0.424 0.423 0.19 0.424 0.424 0.424z" fill="#3C5159"/><path d="m230.56 129.05c0.05 0 0.091-0.041 0.091-0.091 0-0.051-0.041-0.092-0.091-0.092s-0.091 0.041-0.091 0.092c0 0.05 0.041 0.091 0.091 0.091z" fill="#3C5159"/><path d="m230.17 129.98c0.075 0 0.135-0.061 0.135-0.135 0-0.075-0.06-0.136-0.135-0.136-0.074 0-0.135 0.061-0.135 0.136 0 0.074 0.061 0.135 0.135 0.135z" fill="#3C5159"/><path d="m234.74 132.31c0.327 0 0.592-0.265 0.592-0.592s-0.265-0.591-0.592-0.591-0.591 0.264-0.591 0.591 0.264 0.592 0.591 0.592z" fill="#3C5159"/><path d="m237.12 131.48c0.252 0 0.456-0.204 0.456-0.456s-0.204-0.457-0.456-0.457-0.456 0.205-0.456 0.457 0.204 0.456 0.456 0.456z" fill="#3C5159"/><path d="m239.44 132.74c0.53 0 0.96-0.43 0.96-0.961 0-0.53-0.43-0.96-0.96-0.96s-0.96 0.43-0.96 0.96c0 0.531 0.43 0.961 0.96 0.961z" fill="#3C5159"/><path d="m242.36 132.88c0.566 0 1.026-0.46 1.026-1.026 0-0.567-0.46-1.026-1.026-1.026-0.567 0-1.026 0.459-1.026 1.026 0 0.566 0.459 1.026 1.026 1.026z" fill="#3C5159"/><path d="m244.18 131.89c0.248 0 0.449-0.201 0.449-0.45 0-0.248-0.201-0.449-0.449-0.449s-0.449 0.201-0.449 0.449c0 0.249 0.201 0.45 0.449 0.45z" fill="#3C5159"/><path d="m242.52 130.16c0.089 0 0.161-0.072 0.161-0.161s-0.072-0.161-0.161-0.161c-0.088 0-0.16 0.072-0.16 0.161s0.072 0.161 0.16 0.161z" fill="#3C5159"/><path d="m240.29 129.56c0.192 0 0.347-0.155 0.347-0.347 0-0.191-0.155-0.347-0.347-0.347-0.191 0-0.346 0.156-0.346 0.347 0 0.192 0.155 0.347 0.346 0.347z" fill="#3C5159"/><path d="m238.83 129.08c0.194 0 0.351-0.157 0.351-0.35 0-0.194-0.157-0.351-0.351-0.351-0.193 0-0.35 0.157-0.35 0.351 0 0.193 0.157 0.35 0.35 0.35z" fill="#3C5159"/><path d="m237.6 129.64c0.264 0 0.478-0.215 0.478-0.479s-0.214-0.478-0.478-0.478c-0.265 0-0.479 0.214-0.479 0.478s0.214 0.479 0.479 0.479z" fill="#3C5159"/><path d="m236.31 129.92c0.194 0 0.351-0.157 0.351-0.351s-0.157-0.351-0.351-0.351c-0.193 0-0.35 0.157-0.35 0.351s0.157 0.351 0.35 0.351z" fill="#3C5159"/><path d="m239.73 130.53c0.115 0 0.209-0.093 0.209-0.208s-0.094-0.209-0.209-0.209-0.208 0.094-0.208 0.209 0.093 0.208 0.208 0.208z" fill="#3C5159"/><path d="m88.282 113.4c-0.2421 0-0.4743-0.096-0.6454-0.267-0.1712-0.172-0.2674-0.404-0.2674-0.646v-18.351c0-0.2421 0.0962-0.4743 0.2674-0.6455 0.1711-0.1713 0.4033-0.2674 0.6454-0.2674s0.4743 0.0961 0.6455 0.2674c0.1712 0.1712 0.2674 0.4034 0.2674 0.6455v18.34c0.0014 0.121-0.0211 0.241-0.0664 0.353-0.0452 0.112-0.1122 0.214-0.1971 0.3s-0.186 0.154-0.2975 0.201c-0.1115 0.046-0.2311 0.07-0.3519 0.07z" fill="#3C5159"/><path d="m246 116.94c-0.242 0-0.474-0.096-0.645-0.267s-0.268-0.404-0.268-0.646v-18.351c0-0.2421 0.097-0.4744 0.268-0.6456s0.403-0.2674 0.645-0.2674 0.474 0.0962 0.646 0.2674c0.171 0.1712 0.267 0.4035 0.267 0.6456v18.351c0 0.242-0.096 0.475-0.267 0.646-0.172 0.171-0.404 0.267-0.646 0.267z" fill="#3C5159"/><path d="m243.77 48.797c-0.339 0-0.664-0.1346-0.904-0.3743s-0.374-0.5649-0.374-0.9039v-3.7396c0-0.3389 0.134-0.6641 0.374-0.9038s0.565-0.3743 0.904-0.3743 0.664 0.1346 0.903 0.3743c0.24 0.2397 0.375 0.5649 0.375 0.9038v3.7396c0 0.339-0.135 0.6642-0.375 0.9039-0.239 0.2397-0.564 0.3743-0.903 0.3743z" fill="#70BEE0"/><path d="m150.19 160.53c0.884 0 1.6-0.716 1.6-1.599s-0.716-1.6-1.6-1.6c-0.883 0-1.599 0.717-1.599 1.6s0.716 1.599 1.599 1.599z" fill="#A1A1C4"/><path d="m155.02 161.89c0.452 0 0.818-0.366 0.818-0.818 0-0.451-0.366-0.818-0.818-0.818-0.451 0-0.817 0.367-0.817 0.818 0 0.452 0.366 0.818 0.817 0.818z" fill="#A1A1C4"/><path d="m151.57 165.16c0.589 0 1.066-0.477 1.066-1.066s-0.477-1.067-1.066-1.067-1.066 0.478-1.066 1.067 0.477 1.066 1.066 1.066z" fill="#A1A1C4"/><path d="m293.29 172.96h-14.277c3.98-1.583 7.558-4.03 10.476-7.165 1.171 0.791 2.131 1.859 2.794 3.108 0.662 1.25 1.008 2.643 1.007 4.057z" fill="#A1A1C4"/><path d="m253.93 134.96h-173.43v3.199h173.43v-3.199z" fill="#A1A1C4"/><path d="m106.77 141.88c0.452 0 0.818-0.367 0.818-0.818 0-0.452-0.366-0.818-0.818-0.818s-0.818 0.366-0.818 0.818c0 0.451 0.366 0.818 0.818 0.818z" fill="#A1A1C4"/><path d="m101.71 142c1.502 0 2.72-1.219 2.72-2.721 0-1.503-1.218-2.721-2.72-2.721-1.503 0-2.7206 1.218-2.7206 2.721 0 1.502 1.2176 2.721 2.7206 2.721z" fill="#A1A1C4"/><path d="m104.6 145.97c0.746 0 1.351-0.605 1.351-1.351s-0.605-1.351-1.351-1.351-1.351 0.605-1.351 1.351 0.605 1.351 1.351 1.351z" fill="#A1A1C4"/><path d="m96.756 143.35c0.7421 0 1.3437-0.602 1.3437-1.344 0-0.743-0.6016-1.344-1.3437-1.344s-1.3437 0.601-1.3437 1.344c0 0.742 0.6016 1.344 1.3437 1.344z" fill="#A1A1C4"/><path d="m218.45 155.59h-3.75c-0.339 0-0.664-0.135-0.904-0.375-0.239-0.24-0.374-0.565-0.374-0.904s0.135-0.664 0.374-0.903c0.24-0.24 0.565-0.375 0.904-0.375h3.743c0.339 0 0.664 0.135 0.903 0.375 0.24 0.239 0.375 0.564 0.375 0.903s-0.135 0.664-0.375 0.904c-0.239 0.24-0.564 0.375-0.903 0.375h7e-3z" fill="#A1A1C4"/><path d="m245.08 123.18h-155.73v3.557h155.73v-3.557z" fill="#70BEE0"/><path d="m212.8 123.59c0.958 0 1.734-0.777 1.734-1.735s-0.776-1.735-1.734-1.735-1.734 0.777-1.734 1.735 0.776 1.735 1.734 1.735z" fill="#70BEE0"/><path d="m216.06 121.15c0.284 0 0.515-0.231 0.515-0.515s-0.231-0.515-0.515-0.515-0.515 0.231-0.515 0.515 0.231 0.515 0.515 0.515z" fill="#70BEE0"/><path d="m213.54 119.05c0.286 0 0.518-0.232 0.518-0.518 0-0.287-0.232-0.519-0.518-0.519-0.287 0-0.519 0.232-0.519 0.519 0 0.286 0.232 0.518 0.519 0.518z" fill="#70BEE0"/><path d="m208.58 119.65c0.655 0 1.186-0.532 1.186-1.187 0-0.656-0.531-1.187-1.186-1.187-0.656 0-1.187 0.531-1.187 1.187 0 0.655 0.531 1.187 1.187 1.187z" fill="#70BEE0"/><path d="m206.88 123.03c0.581 0 1.052-0.471 1.052-1.051 0-0.581-0.471-1.052-1.052-1.052s-1.051 0.471-1.051 1.052c0 0.58 0.47 1.051 1.051 1.051z" fill="#70BEE0"/><path d="m203.9 120.12c0.296 0 0.536-0.24 0.536-0.537 0-0.296-0.24-0.537-0.536-0.537-0.297 0-0.537 0.241-0.537 0.537 0 0.297 0.24 0.537 0.537 0.537z" fill="#70BEE0"/><path d="m205.1 117.86c0.361 0 0.653-0.293 0.653-0.654s-0.292-0.654-0.653-0.654-0.654 0.293-0.654 0.654 0.293 0.654 0.654 0.654z" fill="#70BEE0"/><path d="m199.99 122.36c0.619 0 1.121-0.502 1.121-1.121s-0.502-1.121-1.121-1.121-1.121 0.502-1.121 1.121 0.502 1.121 1.121 1.121z" fill="#70BEE0"/><path d="m220.05 120.45c0.387 0 0.701-0.314 0.701-0.701 0-0.388-0.314-0.702-0.701-0.702s-0.701 0.314-0.701 0.702c0 0.387 0.314 0.701 0.701 0.701z" fill="#70BEE0"/><path d="m217.41 118.01c0.222 0 0.402-0.18 0.402-0.401 0-0.222-0.18-0.402-0.402-0.402s-0.402 0.18-0.402 0.402c0 0.221 0.18 0.401 0.402 0.401z" fill="#70BEE0"/><path d="m220.51 116.86c0.387 0 0.701-0.314 0.701-0.701s-0.314-0.701-0.701-0.701-0.701 0.314-0.701 0.701 0.314 0.701 0.701 0.701z" fill="#70BEE0"/><path d="m217.28 119.65c0.269 0 0.486-0.218 0.486-0.486s-0.217-0.486-0.486-0.486c-0.268 0-0.485 0.218-0.485 0.486s0.217 0.486 0.485 0.486z" fill="#70BEE0"/><path d="m214.88 116.7c0.302 0 0.548-0.245 0.548-0.548s-0.246-0.548-0.548-0.548c-0.303 0-0.548 0.245-0.548 0.548s0.245 0.548 0.548 0.548z" fill="#70BEE0"/><path d="m211.42 116.15c0.445 0 0.807-0.361 0.807-0.807s-0.362-0.807-0.807-0.807c-0.446 0-0.807 0.361-0.807 0.807s0.361 0.807 0.807 0.807z" fill="#70BEE0"/><path d="m212.07 117.55c0.097 0 0.175-0.079 0.175-0.176 0-0.096-0.078-0.175-0.175-0.175s-0.175 0.079-0.175 0.175c0 0.097 0.078 0.176 0.175 0.176z" fill="#70BEE0"/><path d="m211.33 119.32c0.144 0 0.26-0.116 0.26-0.259s-0.116-0.259-0.26-0.259c-0.143 0-0.259 0.116-0.259 0.259s0.116 0.259 0.259 0.259z" fill="#70BEE0"/><path d="m220.02 123.76c0.621 0 1.124-0.504 1.124-1.125s-0.503-1.125-1.124-1.125c-0.622 0-1.125 0.504-1.125 1.125s0.503 1.125 1.125 1.125z" fill="#70BEE0"/><path d="m224.54 122.18c0.48 0 0.869-0.389 0.869-0.869s-0.389-0.869-0.869-0.869-0.869 0.389-0.869 0.869 0.389 0.869 0.869 0.869z" fill="#70BEE0"/><path d="m228.97 124.59c1.008 0 1.826-0.817 1.826-1.826 0-1.008-0.818-1.826-1.826-1.826s-1.826 0.818-1.826 1.826c0 1.009 0.818 1.826 1.826 1.826z" fill="#70BEE0"/><path d="m234.52 124.85c1.081 0 1.958-0.877 1.958-1.958s-0.877-1.957-1.958-1.957c-1.08 0-1.957 0.876-1.957 1.957s0.877 1.958 1.957 1.958z" fill="#70BEE0"/><path d="m237.98 122.95c0.47 0 0.851-0.381 0.851-0.851s-0.381-0.851-0.851-0.851-0.851 0.381-0.851 0.851 0.381 0.851 0.851 0.851z" fill="#70BEE0"/><path d="m234.82 119.65c0.167 0 0.303-0.136 0.303-0.304 0-0.167-0.136-0.303-0.303-0.303s-0.303 0.136-0.303 0.303c0 0.168 0.136 0.304 0.303 0.304z" fill="#70BEE0"/><path d="m230.58 118.53c0.365 0 0.661-0.296 0.661-0.661s-0.296-0.661-0.661-0.661-0.661 0.296-0.661 0.661 0.296 0.661 0.661 0.661z" fill="#70BEE0"/><path d="m227.81 117.61c0.367 0 0.664-0.298 0.664-0.665s-0.297-0.665-0.664-0.665-0.665 0.298-0.665 0.665 0.298 0.665 0.665 0.665z" fill="#70BEE0"/><path d="m225.46 118.68c0.504 0 0.913-0.409 0.913-0.913s-0.409-0.913-0.913-0.913-0.913 0.409-0.913 0.913 0.409 0.913 0.913 0.913z" fill="#70BEE0"/><path d="m223.01 119.19c0.367 0 0.665-0.297 0.665-0.664s-0.298-0.665-0.665-0.665-0.664 0.298-0.664 0.665 0.297 0.664 0.664 0.664z" fill="#70BEE0"/><path d="m229.52 120.37c0.218 0 0.394-0.176 0.394-0.394s-0.176-0.395-0.394-0.395-0.395 0.177-0.395 0.395 0.177 0.394 0.395 0.394z" fill="#70BEE0"/><path d="m124.8 124.82h-16.318c-0.436 0-0.854-0.173-1.162-0.482-0.308-0.308-0.481-0.726-0.481-1.162 0-0.435 0.173-0.853 0.481-1.162 0.308-0.308 0.726-0.481 1.162-0.481h16.318c0.435 0 0.853 0.173 1.161 0.481 0.309 0.309 0.482 0.727 0.482 1.162 0 0.436-0.173 0.854-0.482 1.162-0.308 0.309-0.726 0.482-1.161 0.482z" fill="#70BEE0"/><path d="m243.77 99.3c-0.339 0-0.664-0.1346-0.904-0.3743s-0.374-0.5648-0.374-0.9038v-18.351c0-0.339 0.134-0.6641 0.374-0.9038s0.565-0.3744 0.904-0.3744 0.664 0.1347 0.903 0.3744c0.24 0.2397 0.375 0.5648 0.375 0.9038v18.351c0 0.1678-0.033 0.334-0.098 0.4891-0.064 0.1551-0.158 0.296-0.277 0.4147-0.118 0.1187-0.259 0.2128-0.414 0.2771-0.155 0.0642-0.321 0.0972-0.489 0.0972z" fill="#70BEE0"/><path d="m90.553 92.11c-0.339 0-0.664-0.1347-0.9037-0.3744s-0.3743-0.5648-0.3743-0.9038v-3.7396c0-0.339 0.1346-0.6641 0.3743-0.9038s0.5647-0.3744 0.9037-0.3744c0.3389 0 0.664 0.1347 0.9036 0.3744 0.2397 0.2397 0.3743 0.5648 0.3743 0.9038v3.7396c0 0.339-0.1346 0.6641-0.3743 0.9038-0.2396 0.2397-0.5647 0.3744-0.9036 0.3744z" fill="#70BEE0"/><path d="m90.553 119.7c-0.339 0-0.664-0.134-0.9037-0.374s-0.3743-0.565-0.3743-0.904v-3.747c0-0.339 0.1346-0.664 0.3743-0.903 0.2397-0.24 0.5647-0.375 0.9037-0.375 0.3389 0 0.664 0.135 0.9036 0.375 0.2397 0.239 0.3743 0.564 0.3743 0.903v3.74c1e-3 0.168-0.0313 0.335-0.0951 0.491s-0.1578 0.298-0.2766 0.417c-0.1187 0.12-0.26 0.215-0.4155 0.279-0.1555 0.065-0.3223 0.098-0.4907 0.098z" fill="#70BEE0"/><path d="m90.553 46.38c-0.339 0-0.664-0.1346-0.9037-0.3743-0.2397-0.2398-0.3743-0.5649-0.3743-0.9039v-3.7432c0-0.339 0.1346-0.6641 0.3743-0.9038s0.5647-0.3744 0.9037-0.3744c0.3389 0 0.664 0.1347 0.9036 0.3744 0.2397 0.2397 0.3743 0.5648 0.3743 0.9038v3.7432c0 0.339-0.1346 0.6641-0.3743 0.9039-0.2396 0.2397-0.5647 0.3743-0.9036 0.3743z" fill="#70BEE0"/><path d="m54.46 142.5h1.8695v4.382c0 0.248-0.0985 0.486-0.2738 0.661-0.1753 0.176-0.4131 0.274-0.661 0.274s-0.4856-0.098-0.6609-0.274c-0.1753-0.175-0.2738-0.413-0.2738-0.661v-4.382z" fill="#DD9742"/><path d="m316.23 132.17c1.591 0 2.881-1.29 2.881-2.881s-1.29-2.881-2.881-2.881-2.881 1.29-2.881 2.881 1.29 2.881 2.881 2.881z" fill="#DC166D"/><path d="m60.4 176.39h-24.318c-0.3389 0-0.664-0.134-0.9037-0.374-0.2396-0.24-0.3743-0.565-0.3743-0.904s0.1347-0.664 0.3743-0.904c0.2397-0.239 0.5648-0.374 0.9037-0.374h24.318c0.339 0 0.664 0.135 0.9037 0.374 0.2397 0.24 0.3743 0.565 0.3743 0.904s-0.1346 0.664-0.3743 0.904-0.5647 0.374-0.9037 0.374z" fill="#fff"/><path d="m73.505 176.39h-6.0612c-0.3389 0-0.664-0.134-0.9036-0.374-0.2397-0.24-0.3744-0.565-0.3744-0.904s0.1347-0.664 0.3744-0.904c0.2396-0.239 0.5647-0.374 0.9036-0.374h6.0612c0.339 0 0.664 0.135 0.9037 0.374 0.2396 0.24 0.3743 0.565 0.3743 0.904s-0.1347 0.664-0.3743 0.904c-0.2397 0.24-0.5647 0.374-0.9037 0.374z" fill="#fff"/><path d="m167.14 150.89c2.714 0 4.915-2.2 4.915-4.915s-2.201-4.916-4.915-4.916-4.915 2.201-4.915 4.916 2.201 4.915 4.915 4.915z" fill="#fff"/><path d="m248.29 156.48h-8.033c-0.387 0-0.759-0.154-1.032-0.428-0.274-0.274-0.428-0.645-0.428-1.033 0-0.387 0.154-0.759 0.428-1.033 0.273-0.274 0.645-0.428 1.032-0.428h8.033c1.625 0 3.473-1.745 3.473-3.286v-4.533c0-0.387 0.153-0.758 0.427-1.032s0.646-0.428 1.033-0.428 0.759 0.154 1.033 0.428 0.428 0.645 0.428 1.032v4.54c-0.019 3.13-3.184 6.201-6.394 6.201z" fill="#fff"/><path d="m101.09 156.88h-8.0326c-0.3874 0-0.7589-0.154-1.0328-0.428s-0.4278-0.645-0.4278-1.033c0-0.387 0.1539-0.759 0.4278-1.033s0.6454-0.428 1.0328-0.428h8.0326c0.388 0 0.759 0.154 1.033 0.428s0.428 0.646 0.428 1.033c0 0.388-0.154 0.759-0.428 1.033s-0.645 0.428-1.033 0.428z" fill="#fff"/><path d="m8.2666 167.16h-6.9923c-0.14526 0-0.28457-0.058-0.38728-0.161-0.10271-0.102-0.16042-0.242-0.16042-0.387 1e-6 -0.145 0.057704-0.285 0.16042-0.387 0.10271-0.103 0.24202-0.161 0.38728-0.161h6.9923c0.14526 0 0.28457 0.058 0.38728 0.161 0.10272 0.102 0.16042 0.242 0.16042 0.387s-0.0577 0.285-0.16042 0.387c-0.10271 0.103-0.24202 0.161-0.38728 0.161z" fill="#1E1E30"/><path d="m30.489 169.87h-29.028c-0.14526 0-0.28457-0.058-0.38728-0.161-0.10271-0.103-0.16042-0.242-0.16042-0.387s0.057704-0.285 0.16042-0.388c0.10271-0.102 0.24202-0.16 0.38728-0.16h29.028c0.1452 0 0.2845 0.058 0.3873 0.16 0.1027 0.103 0.1604 0.243 0.1604 0.388s-0.0577 0.284-0.1604 0.387c-0.1028 0.103-0.2421 0.161-0.3873 0.161z" fill="#1E1E30"/><path d="m297.12 144.19c-0.134 0-0.264-0.049-0.364-0.139s-0.164-0.213-0.18-0.347l-0.854-7.358c-0.016-0.144 0.026-0.289 0.115-0.403s0.22-0.188 0.363-0.207l2.282-0.281c0.072-9e-3 0.145-4e-3 0.215 0.015 0.07 0.02 0.135 0.053 0.192 0.097 0.058 0.045 0.105 0.1 0.141 0.163s0.059 0.133 0.068 0.205 3e-3 0.145-0.016 0.215c-0.02 0.069-0.052 0.135-0.097 0.192s-0.1 0.105-0.163 0.141c-0.063 0.035-0.133 0.058-0.205 0.067l-1.745 0.216 0.792 6.821c0.017 0.145-0.025 0.29-0.115 0.403-0.09 0.114-0.222 0.187-0.366 0.204l-0.063-4e-3z" fill="#1E1E30"/><path d="m320.5 174.18h-22.333c-0.194 0-0.03-0.047-0.167-0.184-0.125 0.151-0.589 0.027-0.589-0.167v-27.795c0-0.194 0.077-0.379 0.214-0.516s0.323-0.214 0.517-0.214h22.328c0.193 0 0.379 0.077 0.516 0.214s0.214 0.322 0.214 0.516v27.795c0 0.194-0.214-0.136-0.351 0-0.137 0.137-0.156 0.351-0.349 0.351zm-21.628-1.081h20.867v-26.335h-20.867v26.335z" fill="#1E1E30"/><path d="m80.501 97.525c-0.1937 0-0.3794-0.0769-0.5164-0.2139s-0.2139-0.3227-0.2139-0.5164v-43.111c0-0.1938 0.0769-0.3795 0.2139-0.5165s0.3227-0.2139 0.5164-0.2139 0.3794 0.0769 0.5164 0.2139c0.1369 0.137 0.2138 0.3227 0.2138 0.5165v43.111c0 0.1937-0.0769 0.3794-0.2138 0.5164-0.137 0.137-0.3227 0.2139-0.5164 0.2139z" fill="#1E1E30"/><path d="m253.93 82.87c-0.193 0-0.379-0.077-0.516-0.214-0.137-0.1369-0.214-0.3227-0.214-0.5164v-6.3763c0-0.1937 0.077-0.3795 0.214-0.5165s0.323-0.2139 0.516-0.2139c0.194 0 0.38 0.0769 0.517 0.2139s0.214 0.3228 0.214 0.5165v6.3763c0 0.1937-0.077 0.3795-0.214 0.5164-0.137 0.137-0.323 0.214-0.517 0.214z" fill="#1E1E30"/><path d="m253.93 72.071c-0.193 0-0.379-0.077-0.516-0.2139-0.137-0.137-0.214-0.3228-0.214-0.5165v-12.011c0-0.1937 0.077-0.3795 0.214-0.5164 0.137-0.137 0.323-0.214 0.516-0.214 0.194 0 0.38 0.077 0.517 0.214 0.137 0.1369 0.214 0.3227 0.214 0.5164v12.011c0 0.1937-0.077 0.3795-0.214 0.5165-0.137 0.1369-0.323 0.2139-0.517 0.2139z" fill="#1E1E30"/><path d="m253.93 55.243c-0.193 0-0.379-0.077-0.516-0.2139-0.137-0.137-0.214-0.3228-0.214-0.5165v-18.11c-2e-3 -1.462-0.583-2.8635-1.617-3.8972-1.033-1.0338-2.435-1.6154-3.896-1.6173h-160.95c-1.4611 0.0029-2.8614 0.5849-3.8942 1.6186-1.0327 1.0336-1.6137 2.4346-1.6157 3.8959v12.534c0 0.1937-0.0769 0.3794-0.2139 0.5164-0.1369 0.137-0.3226 0.2139-0.5163 0.2139s-0.3795-0.0769-0.5164-0.2139c-0.137-0.137-0.2139-0.3227-0.2139-0.5164v-12.534c0.0019-1.8488 0.7368-3.6213 2.0435-4.9289 1.3067-1.3075 3.0785-2.0435 4.9269-2.0464h160.95c1.849 2e-3 3.621 0.7375 4.929 2.0452 1.307 1.3077 2.043 3.0807 2.045 4.9301v18.11c0 0.1937-0.077 0.3795-0.214 0.5165-0.137 0.1369-0.323 0.2139-0.517 0.2139z" fill="#1E1E30"/><path d="m253.93 136h-173.44c-0.1936 0-0.3794-0.077-0.5163-0.214-0.137-0.137-0.2139-0.323-0.2139-0.517 0-0.193 0.0769-0.379 0.2139-0.516 0.1369-0.137 0.3227-0.214 0.5163-0.214h173.44c0.194 0 0.38 0.077 0.517 0.214s0.214 0.323 0.214 0.516c0 0.194-0.077 0.38-0.214 0.517s-0.323 0.214-0.517 0.214z" fill="#1E1E30"/><path d="m89.352 76.968c-0.1937 0-0.3794-0.0769-0.5164-0.2139-0.1369-0.137-0.2139-0.3227-0.2139-0.5164v-8.3995c0-0.1937 0.077-0.3795 0.2139-0.5165 0.137-0.137 0.3227-0.2139 0.5164-0.2139s0.3794 0.0769 0.5164 0.2139c0.1369 0.137 0.2138 0.3228 0.2138 0.5165v8.3995c0 0.1937-0.0769 0.3794-0.2138 0.5164-0.137 0.137-0.3227 0.2139-0.5164 0.2139z" fill="#1E1E30"/><path d="m94.526 57.763c-0.074-1e-4 -0.1472-0.015-0.2154-0.0439-0.0672-0.0285-0.1281-0.0702-0.1789-0.1226-0.0509-0.0524-0.0908-0.1145-0.1173-0.1825-0.0266-0.0681-0.0392-0.1408-0.0373-0.2138 2e-3 -0.073 0.0185-0.1449 0.0487-0.2114l5.1119-11.843c0.062-0.1262 0.1703-0.2237 0.3023-0.2723 0.1319-0.0486 0.2776-0.0445 0.4066 0.0113 0.1291 0.0559 0.2319 0.1593 0.2869 0.2887 0.055 0.1295 0.058 0.2752 8e-3 0.4068l-5.1116 11.843c-0.0407 0.1004-0.1103 0.1863-0.2001 0.2468s-0.1955 0.0928-0.3038 0.0929z" fill="#1E1E30"/><path d="m98.845 55.415c-0.0756 1e-4 -0.1503-0.0161-0.2191-0.0475-0.0672-0.0285-0.1281-0.0702-0.1789-0.1226-0.0509-0.0525-0.0908-0.1145-0.1173-0.1826-0.0266-0.068-0.0392-0.1407-0.0372-0.2137 0.0019-0.073 0.0185-0.1449 0.0486-0.2115l2.5558-5.9198c0.058-0.1336 0.166-0.2389 0.301-0.2927 0.136-0.0538 0.287-0.0516 0.42 6e-3 0.134 0.0577 0.239 0.166 0.293 0.3013s0.052 0.2863-6e-3 0.42l-2.556 5.9198c-0.0397 0.1013-0.109 0.1883-0.1989 0.2495-0.0899 0.0613-0.1962 0.0939-0.305 0.0938z" fill="#1E1E30"/><path d="m97.958 58.278c0.482 0 0.8727-0.3908 0.8727-0.8729 0-0.482-0.3907-0.8728-0.8727-0.8728-0.4819 0-0.8726 0.3908-0.8726 0.8728 0 0.4821 0.3907 0.8729 0.8726 0.8729z" fill="#1E1E30"/><path d="m112.48 34.694h-17.369c-0.1452 0-0.2846-0.0577-0.3873-0.1604-0.1027-0.1028-0.1604-0.2421-0.1604-0.3874s0.0577-0.2846 0.1604-0.3873c0.1027-0.1028 0.2421-0.1605 0.3873-0.1605h17.369c0.145 0 0.285 0.0577 0.387 0.1605 0.103 0.1027 0.161 0.242 0.161 0.3873s-0.058 0.2846-0.161 0.3874c-0.102 0.1027-0.242 0.1604-0.387 0.1604z" fill="#1E1E30"/><path d="m119.79 34.694h-3.491c-0.145 0-0.285-0.0577-0.387-0.1604-0.103-0.1028-0.161-0.2421-0.161-0.3874s0.058-0.2846 0.161-0.3873c0.102-0.1028 0.242-0.1605 0.387-0.1605h3.491c0.145 0 0.284 0.0577 0.387 0.1605 0.103 0.1027 0.16 0.242 0.16 0.3873s-0.057 0.2846-0.16 0.3874c-0.103 0.1027-0.242 0.1604-0.387 0.1604z" fill="#1E1E30"/><path d="m253.86 91.408c-0.193 0-0.379-0.0769-0.516-0.2139s-0.214-0.3228-0.214-0.5165v-3.4292c0-0.1937 0.077-0.3795 0.214-0.5164 0.137-0.137 0.323-0.214 0.516-0.214 0.194 0 0.38 0.077 0.517 0.214 0.137 0.1369 0.214 0.3227 0.214 0.5164v3.4292c0 0.1937-0.077 0.3795-0.214 0.5165s-0.323 0.2139-0.517 0.2139z" fill="#1E1E30"/><path d="m167.23 152.52c-0.84 0.02-1.675-0.128-2.457-0.435-0.781-0.308-1.494-0.768-2.095-1.355s-1.078-1.288-1.404-2.062-0.494-1.606-0.494-2.446 0.168-1.672 0.494-2.446 0.803-1.475 1.404-2.062 1.314-1.047 2.095-1.355c0.782-0.307 1.617-0.455 2.457-0.435 0.193 0 0.379 0.077 0.516 0.214s0.214 0.323 0.214 0.517c0 0.193-0.077 0.379-0.214 0.516s-0.323 0.214-0.516 0.214c-1.069 0-2.108 0.354-2.954 1.008-0.846 0.653-1.451 1.568-1.722 2.602s-0.192 2.129 0.226 3.113c0.417 0.984 1.148 1.802 2.08 2.326 0.931 0.524 2.01 0.725 3.067 0.571 1.058-0.154 2.035-0.654 2.778-1.423 0.743-0.768 1.21-1.761 1.33-2.823 0.119-1.062-0.117-2.134-0.672-3.048-0.101-0.165-0.132-0.364-0.086-0.553 0.046-0.188 0.165-0.35 0.331-0.451 0.165-0.101 0.364-0.132 0.552-0.086 0.189 0.046 0.351 0.165 0.452 0.331 0.579 0.955 0.895 2.047 0.913 3.164s-0.261 2.219-0.808 3.193c-0.548 0.974-1.345 1.784-2.309 2.349-0.964 0.564-2.061 0.861-3.178 0.862z" fill="#1E1E30"/><path d="m143.86 172.78c-0.066 0-0.132-0.012-0.193-0.037-0.068-0.025-0.13-0.063-0.183-0.112-0.052-0.049-0.095-0.108-0.124-0.173-0.03-0.066-0.046-0.137-0.048-0.209s0.011-0.144 0.037-0.211l1.358-3.59c0.052-0.136 0.155-0.246 0.287-0.306 0.133-0.06 0.284-0.064 0.42-0.013s0.246 0.154 0.306 0.287 0.065 0.283 0.013 0.419l-1.362 3.59c-0.039 0.104-0.109 0.193-0.2 0.256-0.092 0.064-0.2 0.098-0.311 0.099z" fill="#1E1E30"/><path d="m146.54 165.7c-0.066 0-0.132-0.011-0.194-0.033-0.067-0.026-0.129-0.064-0.182-0.114-0.052-0.049-0.094-0.109-0.124-0.174-0.029-0.066-0.046-0.137-0.048-0.209-2e-3 -0.073 0.011-0.144 0.037-0.212l0.806-2.132c0.022-0.072 0.059-0.138 0.107-0.195 0.049-0.057 0.109-0.104 0.176-0.136 0.067-0.033 0.141-0.052 0.215-0.056 0.075-3e-3 0.15 9e-3 0.22 0.035 0.07 0.027 0.134 0.067 0.187 0.119 0.054 0.053 0.097 0.115 0.125 0.184 0.029 0.07 0.043 0.144 0.042 0.219-2e-3 0.075-0.018 0.148-0.049 0.217l-0.807 2.132c-0.04 0.104-0.11 0.193-0.201 0.257-0.091 0.063-0.199 0.097-0.31 0.098z" fill="#1E1E30"/><path d="m325.36 184h-317.43c-1.4952 0-2.9292-0.594-3.9864-1.651-1.0573-1.058-1.6512-2.492-1.6512-3.988 0-1.495 0.59397-2.929 1.6512-3.987 1.0573-1.057 2.4912-1.651 3.9864-1.651h88.132c0.1937 0 0.3794 0.077 0.5164 0.214s0.2139 0.322 0.2139 0.516-0.0769 0.38-0.2139 0.517-0.3227 0.214-0.5164 0.214h-88.132c-1.1078 0-2.1703 0.44-2.9537 1.223-0.78336 0.784-1.2234 1.846-1.2234 2.954s0.44009 2.171 1.2234 2.955c0.78336 0.783 1.8458 1.223 2.9537 1.223h317.43c1.108 0 2.171-0.44 2.954-1.223 0.783-0.784 1.223-1.847 1.223-2.955s-0.44-2.17-1.223-2.954c-0.783-0.783-1.846-1.223-2.954-1.223h-204.08c-0.193 0-0.379-0.077-0.516-0.214s-0.214-0.323-0.214-0.517 0.077-0.379 0.214-0.516 0.323-0.214 0.516-0.214h204.08c1.495 0 2.929 0.594 3.987 1.651 1.057 1.058 1.651 2.492 1.651 3.987 0 1.496-0.594 2.93-1.651 3.988-1.058 1.057-2.492 1.651-3.987 1.651z" fill="#1E1E30"/><path d="m107.75 174.2h-5.273c-0.194 0-0.379-0.077-0.516-0.214s-0.214-0.323-0.214-0.516c0-0.194 0.077-0.38 0.214-0.517s0.322-0.214 0.516-0.214h5.273c0.193 0 0.379 0.077 0.516 0.214s0.214 0.323 0.214 0.517c0 0.193-0.077 0.379-0.214 0.516s-0.323 0.214-0.516 0.214z" fill="#1E1E30"/><path d="m115.11 174.2h-2.713c-0.194 0-0.38-0.077-0.517-0.214s-0.214-0.323-0.214-0.516c0-0.194 0.077-0.38 0.214-0.517s0.323-0.214 0.517-0.214h2.713c0.193 0 0.379 0.077 0.516 0.214s0.214 0.323 0.214 0.517c0 0.193-0.077 0.379-0.214 0.516s-0.323 0.214-0.516 0.214z" fill="#1E1E30"/><path d="m293.28 173.7c-0.193 0-0.379-0.077-0.516-0.214s-0.214-0.322-0.214-0.516c0-1.371-0.357-2.719-1.034-3.911-0.678-1.192-1.653-2.188-2.831-2.889-1.178-0.702-2.518-1.086-3.888-1.114-1.371-0.028-2.725 0.3-3.931 0.953-0.17 0.092-0.37 0.113-0.556 0.057-0.186-0.055-0.342-0.182-0.434-0.353-0.092-0.17-0.112-0.37-0.057-0.556 0.056-0.185 0.183-0.341 0.353-0.433 1.428-0.77 3.031-1.157 4.653-1.122s3.207 0.49 4.6 1.321c1.394 0.831 2.548 2.009 3.349 3.42 0.802 1.41 1.224 3.004 1.226 4.627 0 0.192-0.076 0.376-0.21 0.512-0.135 0.137-0.318 0.215-0.51 0.218z" fill="#1E1E30"/><path d="m276.01 173.7c-0.193 0-0.379-0.077-0.516-0.214s-0.214-0.322-0.214-0.516c0-2.146 0.736-4.226 2.085-5.894 0.059-0.08 0.133-0.147 0.218-0.198 0.085-0.05 0.18-0.082 0.278-0.095s0.198-5e-3 0.293 0.022 0.184 0.073 0.261 0.136c0.076 0.062 0.14 0.14 0.186 0.227 0.046 0.088 0.073 0.184 0.081 0.283 8e-3 0.098-5e-3 0.198-0.037 0.291-0.031 0.094-0.082 0.18-0.148 0.254-1.136 1.409-1.755 3.164-1.756 4.974 0 0.096-0.019 0.191-0.056 0.279-0.037 0.089-0.09 0.169-0.158 0.237s-0.149 0.122-0.237 0.159c-0.089 0.036-0.184 0.055-0.28 0.055z" fill="#1E1E30"/><path d="m53.674 138.9c-0.1452 0-0.2845-0.058-0.3872-0.161-0.1028-0.103-0.1605-0.242-0.1605-0.387v-8.195c2e-3 -1.085 0.4339-2.125 1.2012-2.891 0.7673-0.767 1.8073-1.198 2.892-1.199 0.9201-0.03 1.7927-0.416 2.4331-1.078 0.6405-0.661 0.9985-1.546 0.9985-2.467 0-0.92-0.358-1.805-0.9985-2.466-0.6404-0.662-1.513-1.048-2.4331-1.078-0.1453 0-0.2846-0.057-0.3873-0.16s-0.1604-0.242-0.1604-0.388c0-0.145 0.0577-0.284 0.1604-0.387s0.242-0.16 0.3873-0.16c1.2078 0.034 2.3548 0.537 3.1971 1.404 0.8423 0.866 1.3136 2.027 1.3136 3.235 0 1.209-0.4713 2.37-1.3136 3.236-0.8423 0.867-1.9893 1.37-3.1971 1.404-0.7944 0-1.5564 0.316-2.1185 0.877-0.562 0.562-0.8783 1.323-0.8793 2.118v8.195c0 0.145-0.0577 0.284-0.1604 0.387s-0.242 0.161-0.3873 0.161z" fill="#1E1E30"/><path d="m49.216 135.28c-0.1453 0-0.2846-0.058-0.3873-0.16-0.1027-0.103-0.1604-0.242-0.1604-0.388v-8.103c0-0.146 0.0577-0.285 0.1604-0.388s0.242-0.16 0.3873-0.16c0.1452 0 0.2845 0.057 0.3872 0.16s0.1604 0.242 0.1604 0.388v8.103c0 0.146-0.0577 0.285-0.1604 0.388-0.1027 0.102-0.242 0.16-0.3872 0.16z" fill="#1E1E30"/><path d="m58.056 139.56c-0.1452 0-0.2845-0.058-0.3873-0.16-0.1027-0.103-0.1604-0.242-0.1604-0.388v-8.107c0-0.145 0.0577-0.285 0.1604-0.387 0.1028-0.103 0.2421-0.161 0.3873-0.161 0.1453 0 0.2846 0.058 0.3873 0.161 0.1027 0.102 0.1604 0.242 0.1604 0.387v8.107c0 0.146-0.0577 0.285-0.1604 0.388-0.1027 0.102-0.242 0.16-0.3873 0.16z" fill="#1E1E30"/><path d="m245.08 127.28h-155.73c-0.1452 0-0.2845-0.058-0.3873-0.161-0.1027-0.103-0.1604-0.242-0.1604-0.387v-46.497c0-0.1453 0.0577-0.2846 0.1604-0.3873 0.1028-0.1028 0.2421-0.1605 0.3873-0.1605 0.1453 0 0.2846 0.0577 0.3873 0.1605 0.1027 0.1027 0.1604 0.242 0.1604 0.3873v45.949h154.63v-85.529h-154.63v21.642c0 0.1453-0.0577 0.2846-0.1604 0.3874-0.1027 0.1027-0.242 0.1604-0.3873 0.1604-0.1452 0-0.2845-0.0577-0.3873-0.1604-0.1027-0.1028-0.1604-0.2421-0.1604-0.3874v-22.189c0-0.1452 0.0577-0.2846 0.1604-0.3873 0.1028-0.1027 0.2421-0.1605 0.3873-0.1605h155.73c0.145 0 0.285 0.0578 0.387 0.1605 0.103 0.1027 0.161 0.2421 0.161 0.3873v86.614c1e-3 0.073-0.012 0.145-0.039 0.213s-0.067 0.129-0.118 0.181-0.112 0.094-0.179 0.122-0.139 0.043-0.212 0.043z" fill="#1E1E30"/><path d="m64.11 174h-20.447c-0.7198 0-1.4103-0.286-1.9196-0.795-0.5094-0.508-0.796-1.198-0.797-1.918v-9.678c0-0.194 0.077-0.38 0.2139-0.517 0.137-0.137 0.3227-0.213 0.5164-0.213s0.3794 0.076 0.5164 0.213c0.1369 0.137 0.2139 0.323 0.2139 0.517v9.667c9e-4 0.332 0.1337 0.651 0.3691 0.886 0.2355 0.234 0.5544 0.366 0.8869 0.366h20.447c0.3313-2e-3 0.6483-0.134 0.8822-0.369s0.3656-0.552 0.3666-0.883v-26.992c-1e-3 -0.333-0.1336-0.652-0.369-0.887-0.2353-0.236-0.5542-0.368-0.8871-0.369h-20.447c-0.3328 1e-3 -0.6517 0.133-0.8871 0.369-0.2353 0.235-0.368 0.554-0.3689 0.887v7.687c0 0.194-0.077 0.38-0.2139 0.517-0.137 0.137-0.3227 0.214-0.5164 0.214s-0.3794-0.077-0.5164-0.214c-0.1369-0.137-0.2139-0.323-0.2139-0.517v-7.687c1e-3 -0.72 0.2875-1.411 0.7968-1.92 0.5092-0.509 1.1996-0.796 1.9198-0.797h20.447c0.7202 1e-3 1.4106 0.288 1.9199 0.797 0.5092 0.509 0.7958 1.2 0.7967 1.92v26.992c1e-3 0.356-0.0683 0.71-0.204 1.04-0.1356 0.33-0.3349 0.63-0.5865 0.883s-0.5505 0.454-0.8797 0.591c-0.3293 0.138-0.6823 0.209-1.0391 0.21z" fill="#1E1E30"/><path d="m41.676 158.86c-0.1937 0-0.3794-0.077-0.5164-0.214-0.1369-0.137-0.2139-0.323-0.2139-0.516v-3.094c0-0.193 0.077-0.379 0.2139-0.516 0.137-0.137 0.3227-0.214 0.5164-0.214s0.3794 0.077 0.5164 0.214c0.1369 0.137 0.2139 0.323 0.2139 0.516v3.094c0 0.193-0.077 0.379-0.2139 0.516-0.137 0.137-0.3227 0.214-0.5164 0.214z" fill="#1E1E30"/><path d="m316.23 132.72c-0.678 0-1.341-0.201-1.905-0.578-0.564-0.376-1.003-0.912-1.263-1.539-0.259-0.626-0.327-1.316-0.195-1.981 0.133-0.665 0.459-1.276 0.939-1.756 0.479-0.479 1.09-0.806 1.755-0.938s1.355-0.065 1.981 0.195c0.627 0.26 1.162 0.699 1.539 1.263s0.578 1.227 0.578 1.905c-1e-3 0.909-0.363 1.781-1.006 2.424-0.642 0.643-1.514 1.004-2.423 1.005zm0-5.759c-0.462 0-0.913 0.137-1.297 0.394-0.383 0.256-0.682 0.621-0.859 1.048-0.176 0.426-0.222 0.896-0.132 1.348 0.09 0.453 0.313 0.869 0.639 1.195 0.327 0.326 0.743 0.548 1.196 0.638s0.922 0.043 1.348-0.134c0.427-0.177 0.791-0.477 1.047-0.861 0.256-0.385 0.392-0.836 0.391-1.298 0-0.306-0.06-0.609-0.177-0.892-0.118-0.283-0.29-0.54-0.506-0.757-0.217-0.216-0.474-0.388-0.757-0.504-0.283-0.117-0.587-0.177-0.893-0.177z" fill="#1E1E30"/><path d="m310.36 143.46h-0.066c-0.071-8e-3 -0.14-0.031-0.203-0.066-0.063-0.034-0.118-0.081-0.162-0.138-0.045-0.056-0.078-0.121-0.097-0.19s-0.025-0.141-0.016-0.212l0.788-6.822-1.741-0.216c-0.146-0.017-0.278-0.092-0.368-0.207-0.091-0.115-0.132-0.261-0.114-0.406 0.017-0.146 0.092-0.278 0.207-0.368 0.115-0.091 0.261-0.132 0.406-0.114l2.286 0.281c0.143 0.019 0.273 0.094 0.362 0.208s0.129 0.258 0.112 0.402l-0.85 7.358c-0.015 0.135-0.078 0.259-0.179 0.349-0.1 0.091-0.23 0.141-0.365 0.141z" fill="#1E1E30"/><path d="m248 156.45h-161.57c-1.7657-2e-3 -3.4586-0.705-4.7072-1.953-1.2486-1.249-1.9509-2.942-1.9528-4.708v-48.444c0-0.193 0.0769-0.379 0.2139-0.516 0.1369-0.137 0.3227-0.214 0.5164-0.214s0.3794 0.077 0.5163 0.214c0.137 0.137 0.2139 0.323 0.2139 0.516v48.444c1e-3 1.378 0.5491 2.701 1.524 3.676s2.2968 1.523 3.6755 1.524h161.57c1.378-2e-3 2.699-0.551 3.674-1.525 0.975-0.975 1.523-2.297 1.525-3.675v-54.108c0-0.1937 0.077-0.3795 0.214-0.5165 0.137-0.1369 0.323-0.2139 0.516-0.2139 0.194 0 0.38 0.077 0.517 0.2139 0.137 0.137 0.214 0.3228 0.214 0.5165v54.108c-2e-3 1.766-0.705 3.459-1.953 4.708-1.249 1.248-2.942 1.951-4.707 1.953z" fill="#1E1E30"/></g><defs><clipPath id="a"><rect width="331" height="184" fill="#fff"/></clipPath></defs></svg>
