<?xml version="1.0" encoding="UTF-8"?>
<svg viewBox="0 0 192 192" xmlns="http://www.w3.org/2000/svg"><style>@media(prefers-color-scheme:dark){circle{fill:#25262a;}path{fill:#E7E7E7;}}</style>
<circle cx="96" cy="96" r="96" fill="#E7E7E7"/>
<path d="m56.931 37.104c-2e-4 -1.3354 0.5234-2.6177 1.4583-3.5713s2.2065-1.5025 3.5417-1.5287h49.5c6.547-0.0702 13.063 0.9089 19.3 2.9l-8.7 8.8c-2.868-0.5451-5.781-0.813-8.7-0.8h-50.6c-1.5382 0-3.0135-0.611-4.1012-1.6988-1.0877-1.0877-1.6988-2.5629-1.6988-4.1012z" fill="#25262A"/>
<path d="m122.13 106.1 8.9 8.9c-6.805 2.238-13.937 3.319-21.1 3.2h-29.8c-2.9704 0-5.8191 1.18-7.9196 3.28-2.1004 2.1-3.2804 4.949-3.2804 7.92v35.8c0 1.591-0.6321 3.117-1.7573 4.242s-2.6514 1.758-4.2427 1.758-3.1174-0.633-4.2426-1.758-1.7574-2.651-1.7574-4.242v-43.5c0-3.82 1.5172-7.482 4.2177-10.183 2.7005-2.7 6.3632-4.217 10.182-4.217h39.7c3.734 0.032 7.459-0.371 11.1-1.2z" fill="#25262A"/>
<path d="m158.63 74.604c0 13.1-4.3 23.6-12 31-1.096 1.043-2.557 1.617-4.07 1.598-1.514-0.019-2.96-0.628-4.03-1.698l-0.2-0.2c-1.077-1.04-1.702-2.462-1.74-3.959-0.037-1.4975 0.516-2.949 1.54-4.0415 5-5.3 7.9-12.7 7.9-22.4 0-10.3-3-17.8-7.8-22.9-0.994-1.0874-1.529-2.5174-1.491-3.9903 0.037-1.4728 0.643-2.874 1.691-3.9097 1.053-1.0544 2.471-1.6634 3.96-1.7007 1.489-0.0372 2.936 0.5002 4.04 1.5007 7.7 7.3 12.2 17.6 12.2 30.7z" fill="#25262A"/>
<path d="m67.531 50.904v1.2h-9.2v-1.2c0-1.22 0.4847-2.39 1.3474-3.2527 0.8626-0.8626 2.0326-1.3473 3.2526-1.3473s2.3901 0.4847 3.2527 1.3473c0.8627 0.8627 1.3473 2.0327 1.3473 3.2527z" fill="#25262A"/>
<path d="m66.031 62.904h-6.2c-0.8836 0-1.6 0.7164-1.6 1.6v3.6c0 0.8837 0.7164 1.6 1.6 1.6h6.2c0.8837 0 1.6-0.7163 1.6-1.6v-3.6c0-0.8836-0.7163-1.6-1.6-1.6z" fill="#25262A"/>
<path d="m65.631 80.504h-5.5c-0.9941 0-1.8 0.8059-1.8 1.8v3c0 0.9941 0.8059 1.8 1.8 1.8h5.5c0.9942 0 1.8-0.8059 1.8-1.8v-3c0-0.9941-0.8058-1.8-1.8-1.8z" fill="#25262A"/>
<path d="m58.231 97.904h9.3v0.9c0.0342 1.1927-0.3771 2.3555-1.1536 3.2615s-1.8625 1.49-3.0464 1.639c-0.6416 0.054-1.2877-0.023-1.8982-0.228-0.6104-0.205-1.1722-0.534-1.6504-0.965-0.4782-0.432-0.8627-0.957-1.1296-1.543-0.2668-0.586-0.4104-1.2206-0.4218-1.8645v-1.2z" fill="#25262A"/>
<path d="m92.431 57.404c0 1.1935-0.4741 2.3381-1.318 3.182s-1.9885 1.318-3.182 1.318h-50.1c-1.0655-0.1602-2.0383-0.6974-2.7413-1.514s-1.0897-1.8584-1.0897-2.936c0-1.0775 0.3867-2.1193 1.0897-2.9359 0.703-0.8167 1.6758-1.3539 2.7413-1.5141h50.2c1.159 0.0255 2.2634 0.4973 3.0831 1.317s1.2915 1.9241 1.3169 3.083z" fill="#25262A"/>
<path d="m92.431 75.004c0 1.1935-0.4741 2.3381-1.318 3.182s-1.9885 1.318-3.182 1.318h-50.1c-1.0655-0.1602-2.0383-0.6974-2.7413-1.514s-1.0897-1.8584-1.0897-2.936c0-1.0775 0.3867-2.1193 1.0897-2.9359 0.703-0.8167 1.6758-1.3539 2.7413-1.5141h50.2c1.159 0.0255 2.2634 0.4973 3.0831 1.317s1.2915 1.9241 1.3169 3.083z" fill="#25262A"/>
<path d="m92.431 92.604c0 1.1935-0.4741 2.3381-1.318 3.182s-1.9885 1.318-3.182 1.318h-50.1c-1.0655-0.1602-2.0383-0.6974-2.7413-1.514s-1.0897-1.8584-1.0897-2.936c0-1.0775 0.3867-2.1193 1.0897-2.9359 0.703-0.8167 1.6758-1.3539 2.7413-1.5141h50.2c1.159 0.0255 2.2634 0.4973 3.0831 1.317s1.2915 1.9241 1.3169 3.083z" fill="#25262A"/>
<path d="m125.83 92.904c0.822 0.8387 1.38 1.9002 1.605 3.053 0.225 1.1527 0.106 2.3461-0.341 3.4321-0.447 1.0864-1.203 2.0174-2.175 2.6774-0.971 0.66-2.115 1.021-3.289 1.038-1.299 7e-3 -2.565-0.415-3.6-1.2l-21.9-21.8c-0.6712-0.6689-1.2038-1.4637-1.5672-2.3389s-0.5504-1.8135-0.5504-2.7611 0.187-1.8859 0.5504-2.7611c0.3634-0.8751 0.896-1.67 1.5672-2.3389l3.4-3.3 17.9-17.9c0.839-0.8222 1.9-1.3803 3.053-1.6049 1.153-0.2247 2.346-0.106 3.432 0.3411 1.086 0.4472 2.017 1.2033 2.677 2.1745 0.661 0.9713 1.022 2.115 1.038 3.2893-1e-3 1.0977-0.313 2.1727-0.9 3.1l-16.7 17c-0.55 0.5608-0.858 1.3148-0.858 2.1 0 0.7853 0.308 1.5392 0.858 2.1l15.8 15.7z" fill="#25262A"/>
<path d="m125.83 92.904c0.822 0.8387 1.38 1.9002 1.605 3.053 0.225 1.1527 0.106 2.3461-0.341 3.4321-0.447 1.0864-1.203 2.0174-2.175 2.6774-0.971 0.66-2.115 1.021-3.289 1.038-1.299 7e-3 -2.565-0.415-3.6-1.2-0.213-0.151-0.414-0.318-0.6-0.5l-21.3-21.3c-0.6712-0.6689-1.2038-1.4637-1.5672-2.3389s-0.5504-1.8135-0.5504-2.7611 0.187-1.8859 0.5504-2.7611c0.3634-0.8751 0.896-1.67 1.5672-2.3389l3.4-3.3 17.9-17.9c0.839-0.8222 1.9-1.3803 3.053-1.6049 1.153-0.2247 2.346-0.106 3.432 0.3411 1.086 0.4472 2.017 1.2033 2.677 2.1745 0.661 0.9713 1.022 2.115 1.038 3.2893-1e-3 1.0977-0.313 2.1727-0.9 3.1-0.244 0.4393-0.547 0.843-0.9 1.2l-15.8 15.7c-0.55 0.5608-0.858 1.3148-0.858 2.1 0 0.7853 0.308 1.5392 0.858 2.1l15.8 15.8z" fill="#25262A"/>
</svg>
