<svg fill="none" viewBox="0 0 295 295" xmlns="http://www.w3.org/2000/svg"><mask id="a" x="0" y="0" width="295" height="295" mask-type="alpha" maskUnits="userSpaceOnUse"><path d="m261 0h-227c-18.778 0-34 15.222-34 34v227c0 18.778 15.222 34 34 34h227c18.778 0 34-15.222 34-34v-227c0-18.778-15.222-34-34-34z" fill="#fff"/></mask><g mask="url(#a)"><path d="M295 0H0V47H295V0Z" fill="#64F4AC"/><path d="M295 47H0V295H295V47Z" fill="#fff"/><path d="m29.5 31c4.1421 0 7.5-3.3579 7.5-7.5s-3.3579-7.5-7.5-7.5-7.5 3.3579-7.5 7.5 3.3579 7.5 7.5 7.5z" fill="#F46464"/><path d="m52.5 31c4.1421 0 7.5-3.3579 7.5-7.5s-3.3579-7.5-7.5-7.5-7.5 3.3579-7.5 7.5 3.3579 7.5 7.5 7.5z" fill="#F39E60"/><path d="m75.5 31c4.1421 0 7.5-3.3579 7.5-7.5s-3.3579-7.5-7.5-7.5-7.5 3.3579-7.5 7.5 3.3579 7.5 7.5 7.5z" fill="#2BA977"/><path d="m134.72 23.378h0.628c0.252 0 0.462-0.0333 0.628-0.1 0.166-0.0733 0.309-0.1867 0.428-0.34l3.976-5.05c0.166-0.2133 0.339-0.36 0.518-0.44 0.186-0.0867 0.419-0.13 0.698-0.13h2.311l-4.852 6.01c-0.286 0.3667-0.581 0.6267-0.887 0.78 0.219 0.08 0.415 0.1933 0.588 0.34 0.179 0.14 0.349 0.3267 0.508 0.56l5.002 6.77h-2.361c-0.319 0-0.558-0.0433-0.718-0.13-0.153-0.0933-0.282-0.2267-0.389-0.4l-4.075-5.34c-0.126-0.18-0.272-0.3067-0.438-0.38s-0.406-0.11-0.718-0.11h-0.847v6.36h-2.68v-14.46h2.68v6.06z" fill="#4E5055"/><path d="m157.84 17.318v14.46h-2.69v-6.32h-6.766v6.32h-2.69v-14.46h2.69v6.22h6.766v-6.22h2.69z" fill="#4E5055"/><path d="m160.58 24.708h5.161v2.06h-5.161v-2.06z" fill="#4E5055"/><path d="m174.68 25.468c0-0.32-0.047-0.62-0.14-0.9-0.086-0.2867-0.219-0.5367-0.398-0.75s-0.409-0.38-0.688-0.5c-0.272-0.1267-0.591-0.19-0.956-0.19-0.711 0-1.272 0.2033-1.684 0.61-0.405 0.4067-0.664 0.9833-0.777 1.73h4.643zm-4.693 1.49c0.04 0.5267 0.133 0.9833 0.279 1.37 0.146 0.38 0.339 0.6967 0.578 0.95 0.239 0.2467 0.521 0.4333 0.847 0.56 0.332 0.12 0.697 0.18 1.096 0.18 0.398 0 0.74-0.0467 1.026-0.14 0.292-0.0933 0.545-0.1967 0.757-0.31 0.22-0.1133 0.409-0.2167 0.568-0.31 0.166-0.0933 0.326-0.14 0.479-0.14 0.206 0 0.358 0.0767 0.458 0.23l0.707 0.9c-0.272 0.32-0.577 0.59-0.916 0.81-0.339 0.2133-0.694 0.3867-1.066 0.52-0.366 0.1267-0.741 0.2167-1.126 0.27-0.379 0.0533-0.748 0.08-1.106 0.08-0.711 0-1.372-0.1167-1.983-0.35-0.611-0.24-1.143-0.59-1.595-1.05-0.451-0.4667-0.807-1.04-1.066-1.72-0.259-0.6867-0.388-1.48-0.388-2.38 0-0.7 0.113-1.3567 0.338-1.97 0.226-0.62 0.548-1.1567 0.967-1.61 0.425-0.46 0.94-0.8233 1.544-1.09 0.612-0.2667 1.299-0.4 2.063-0.4 0.644 0 1.239 0.1033 1.784 0.31 0.544 0.2067 1.013 0.51 1.405 0.91 0.392 0.3933 0.697 0.88 0.916 1.46 0.226 0.5733 0.339 1.23 0.339 1.97 0 0.3733-0.04 0.6267-0.12 0.76-0.079 0.1267-0.232 0.19-0.458 0.19h-6.327z" fill="#4E5055"/><path d="m178.66 24.708h5.162v2.06h-5.162v-2.06z" fill="#4E5055"/><path d="m195.42 19.528h-4.344v12.25h-2.681v-12.25h-4.344v-2.21h11.369v2.21z" fill="#4E5055"/><path d="m200 31.778h-2.69v-14.46h2.69v14.46z" fill="#4E5055"/><path d="m116.55 27.125c-1.891 0-3.425 1.5391-3.425 3.4375s1.534 3.4375 3.425 3.4375c1.892 0 3.426-1.5391 3.426-3.4375s-1.534-3.4375-3.426-3.4375zm0 4.375c-0.515 0-0.934-0.4207-0.934-0.9375s0.419-0.9375 0.934-0.9375 0.934 0.4207 0.934 0.9375-0.419 0.9375-0.934 0.9375zm3.114-11.25h-2.491v-1.5703c0-0.5516 0.183-1.0844 0.512-1.5172 0.172-0.2266 0.138-0.5492-0.051-0.7613l-0.842-0.9442c-0.26-0.291-0.713-0.2703-0.962 0.0305-0.736 0.8914-1.148 2.0207-1.148 3.1922v1.5703h-3.983l-2.183-5.1117c-0.144-0.338-0.383-0.6261-0.688-0.8285-0.306-0.2024-0.664-0.3102-1.03-0.3098h-5.194c-1.03 0-1.8684 0.841-1.8684 1.875v5.7234c-0.3359-0.2629-0.8158-0.2523-1.1245 0.0575l-1.2109 1.2152c-0.3343 0.3355-0.3343 0.8797 0 1.2152l0.197 0.1977c-0.1943 0.3617-0.3488 0.7351-0.4636 1.1219h-0.2783c-0.4729 0-0.8563 0.3847-0.8563 0.8593v1.7188c0 0.4746 0.3834 0.8594 0.8563 0.8594h0.2779c0.1152 0.3871 0.2694 0.7601 0.4636 1.1222l-0.197 0.1977c-0.3343 0.3355-0.3343 0.8797 0 1.2152l1.2109 1.2153c0.3344 0.3355 0.8766 0.3355 1.2109 0l0.1974-0.1977c0.36 0.1949 0.732 0.35 1.117 0.4652v0.2793c0 0.4746 0.384 0.8594 0.857 0.8594h1.712c0.473 0 0.857-0.3848 0.857-0.8594v-0.2789c0.385-0.1152 0.757-0.2703 1.118-0.4652l0.196 0.1976c0.335 0.3356 0.877 0.3356 1.211 0l1.211-1.2152c0.335-0.3355 0.335-0.8797 0-1.2152l-0.197-0.1977c0.195-0.3617 0.349-0.7351 0.464-1.1219h0.279c0.472 0 0.856-0.3847 0.856-0.8593v-0.2344h3.135c0.853-1.1324 2.192-1.875 3.715-1.875 0.726 0 1.404 0.1801 2.017 0.4766l1.978-1.9852c0.233-0.2344 0.364-0.5523 0.364-0.884v-1.9828c1e-3 -0.6902-0.557-1.25-1.245-1.25zm-16.815 10c-1.719 0-3.1134-1.3992-3.1134-3.125s1.3944-3.125 3.1134-3.125c1.72 0 3.114 1.3992 3.114 3.125s-1.394 3.125-3.114 3.125zm-0.622-10v-3.75h4.16l1.602 3.75h-5.762z" fill="#4E5055"/><path d="m220 221h55v20h-55v-20z" fill="#E5E5E5"/><path d="m220 221h55v20h-55v-20z" fill="#64F4AC"/><path d="m138 89h-109c-4.4183 0-8 3.5817-8 8v80c0 4.418 3.5817 8 8 8h109c4.418 0 8-3.582 8-8v-80c0-4.4183-3.582-8-8-8z" fill="#E5E5E5"/><path d="m170 110h105v10h-105v-10z" fill="#E5E5E5"/><path d="m170 130h105v10h-105v-10z" fill="#E5E5E5"/><path d="M170 89H275V99H170V89Z" fill="#E5E5E5"/><path d="m147 221h55v20h-55v-20z" fill="#E5E5E5"/></g></svg>
