<svg viewBox="0 0 23 22" fill="none" xmlns="http://www.w3.org/2000/svg"><path d="M5.366 2.482C5.366 3.858 4.331 4.961 2.667 4.961H2.636C1.034 4.962 0 3.857 0 2.482C0 1.073 1.067 6.97749e-07 2.698 6.97749e-07C4.331 -0.000999302 5.336 1.073 5.366 2.482ZM0.28 21.275H5.052V6.922H0.28V21.275ZM16.764 6.586C14.233 6.586 13.1 7.976 12.463 8.956V9.002H12.432C12.444 8.988 12.455 8.972 12.463 8.956V6.923H7.692C7.754 8.268 7.692 21.276 7.692 21.276H12.463V13.26C12.463 12.828 12.492 12.405 12.62 12.096C12.966 11.242 13.752 10.349 15.066 10.349C16.795 10.349 17.486 11.668 17.486 13.596V21.276H22.257V13.047C22.258 8.635 19.902 6.586 16.764 6.586Z" fill="#ADADAD"/></svg>
