<svg fill="none" viewBox="0 0 295 295" xmlns="http://www.w3.org/2000/svg"><mask id="a" x="0" y="0" width="295" height="295" mask-type="alpha" maskUnits="userSpaceOnUse"><path d="m261 0h-227c-18.778 0-34 15.222-34 34v227c0 18.778 15.222 34 34 34h227c18.778 0 34-15.222 34-34v-227c0-18.778-15.222-34-34-34z" fill="#fff"/></mask><g mask="url(#a)"><path d="M0 0H295V47H0V0Z" fill="#4B4B4B"/><path d="M295 47H0V295H295V47Z" fill="#fff"/><path d="m212 85h-129c-4.4183 0-8 3.5817-8 8v112c0 4.418 3.5817 8 8 8h129c4.418 0 8-3.582 8-8v-112c0-4.4183-3.582-8-8-8z" fill="#E5E5E5"/><path d="m167 231h-89c-1.6569 0-3 1.343-3 3v14c0 1.657 1.3431 3 3 3h89c1.657 0 3-1.343 3-3v-14c0-1.657-1.343-3-3-3z" fill="#E5E5E5"/><path d="m29.5 31c4.1421 0 7.5-3.3579 7.5-7.5s-3.3579-7.5-7.5-7.5-7.5 3.3579-7.5 7.5 3.3579 7.5 7.5 7.5z" fill="#F46464"/><path d="m52.5 31c4.1421 0 7.5-3.3579 7.5-7.5s-3.3579-7.5-7.5-7.5-7.5 3.3579-7.5 7.5 3.3579 7.5 7.5 7.5z" fill="#F39E60"/><path d="m75.5 31c4.1421 0 7.5-3.3579 7.5-7.5s-3.3579-7.5-7.5-7.5-7.5 3.3579-7.5 7.5 3.3579 7.5 7.5 7.5z" fill="#2BA977"/><path d="m100 104h95v20h-95v-20z" fill="#fff"/><path d="m100 139h95v20h-95v-20z" fill="#fff"/><path d="m100 173h45v20h-45v-20z" fill="#64C0F4"/><path d="m217 231h-39c-1.657 0-3 1.343-3 3v14c0 1.657 1.343 3 3 3h39c1.657 0 3-1.343 3-3v-14c0-1.657-1.343-3-3-3z" fill="#64C0F4"/><path d="m102.7 23.81c0.493 0 0.923-0.06 1.29-0.18 0.366-0.1267 0.67-0.3033 0.91-0.53 0.246-0.2333 0.43-0.5133 0.55-0.84 0.12-0.3333 0.18-0.7033 0.18-1.11 0-0.3867-0.06-0.7367-0.18-1.05s-0.3-0.58-0.54-0.8-0.544-0.3867-0.91-0.5c-0.367-0.12-0.8-0.18-1.3-0.18h-2.01v5.19h2.01zm0-7.27c0.966 0 1.803 0.1133 2.51 0.34 0.706 0.2267 1.29 0.5433 1.75 0.95s0.8 0.8933 1.02 1.46c0.226 0.5667 0.34 1.1867 0.34 1.86 0 0.7-0.117 1.3433-0.35 1.93-0.234 0.58-0.584 1.08-1.05 1.5-0.467 0.42-1.054 0.7467-1.76 0.98-0.7 0.2333-1.52 0.35-2.46 0.35h-2.01v5.09h-2.6902v-14.46h4.7002zm12.4 10.08c-0.713 0.0333-1.313 0.0967-1.8 0.19-0.487 0.0867-0.877 0.2-1.17 0.34s-0.503 0.3033-0.63 0.49-0.19 0.39-0.19 0.61c0 0.4333 0.127 0.7433 0.38 0.93 0.26 0.1867 0.597 0.28 1.01 0.28 0.507 0 0.943-0.09 1.31-0.27 0.373-0.1867 0.737-0.4667 1.09-0.84v-1.73zm-5.66-4.45c1.18-1.08 2.6-1.62 4.26-1.62 0.6 0 1.137 0.1 1.61 0.3 0.473 0.1933 0.873 0.4667 1.2 0.82 0.327 0.3467 0.573 0.7633 0.74 1.25 0.173 0.4867 0.26 1.02 0.26 1.6v6.48h-1.12c-0.233 0-0.413-0.0333-0.54-0.1-0.127-0.0733-0.227-0.2167-0.3-0.43l-0.22-0.74c-0.26 0.2333-0.513 0.44-0.76 0.62-0.247 0.1733-0.503 0.32-0.77 0.44s-0.553 0.21-0.86 0.27c-0.3 0.0667-0.633 0.1-1 0.1-0.433 0-0.833-0.0567-1.2-0.17-0.367-0.12-0.683-0.2967-0.95-0.53s-0.473-0.5233-0.62-0.87-0.22-0.75-0.22-1.21c0-0.26 0.043-0.5167 0.13-0.77 0.087-0.26 0.227-0.5067 0.42-0.74 0.2-0.2333 0.457-0.4533 0.77-0.66s0.697-0.3867 1.15-0.54c0.46-0.1533 0.993-0.2767 1.6-0.37 0.607-0.1 1.3-0.16 2.08-0.18v-0.6c0-0.6867-0.147-1.1933-0.44-1.52-0.293-0.3333-0.717-0.5-1.27-0.5-0.4 0-0.733 0.0467-1 0.14-0.26 0.0933-0.49 0.2-0.69 0.32-0.2 0.1133-0.383 0.2167-0.55 0.31-0.16 0.0933-0.34 0.14-0.54 0.14-0.173 0-0.32-0.0433-0.44-0.13-0.12-0.0933-0.217-0.2-0.29-0.32l-0.44-0.79zm16.656 0.57c-0.066 0.1067-0.136 0.1833-0.21 0.23-0.073 0.04-0.166 0.06-0.28 0.06-0.12 0-0.25-0.0333-0.39-0.1-0.133-0.0667-0.29-0.14-0.47-0.22-0.18-0.0867-0.386-0.1633-0.62-0.23-0.226-0.0667-0.496-0.1-0.81-0.1-0.486 0-0.87 0.1033-1.15 0.31-0.273 0.2067-0.41 0.4767-0.41 0.81 0 0.22 0.07 0.4067 0.21 0.56 0.147 0.1467 0.337 0.2767 0.57 0.39 0.24 0.1133 0.51 0.2167 0.81 0.31 0.3 0.0867 0.604 0.1833 0.91 0.29 0.314 0.1067 0.62 0.23 0.92 0.37 0.3 0.1333 0.567 0.3067 0.8 0.52 0.24 0.2067 0.43 0.4567 0.57 0.75 0.147 0.2933 0.22 0.6467 0.22 1.06 0 0.4933-0.09 0.95-0.27 1.37-0.173 0.4133-0.433 0.7733-0.78 1.08-0.346 0.3-0.776 0.5367-1.29 0.71-0.506 0.1667-1.093 0.25-1.76 0.25-0.353 0-0.7-0.0333-1.04-0.1-0.333-0.06-0.656-0.1467-0.97-0.26-0.306-0.1133-0.593-0.2467-0.86-0.4-0.26-0.1533-0.49-0.32-0.69-0.5l0.57-0.94c0.074-0.1133 0.16-0.2 0.26-0.26s0.227-0.09 0.38-0.09c0.154 0 0.297 0.0433 0.43 0.13 0.14 0.0867 0.3 0.18 0.48 0.28s0.39 0.1933 0.63 0.28c0.247 0.0867 0.557 0.13 0.93 0.13 0.294 0 0.544-0.0333 0.75-0.1 0.214-0.0733 0.387-0.1667 0.52-0.28 0.14-0.1133 0.24-0.2433 0.3-0.39 0.067-0.1533 0.1-0.31 0.1-0.47 0-0.24-0.073-0.4367-0.22-0.59-0.14-0.1533-0.33-0.2867-0.57-0.4-0.233-0.1133-0.503-0.2133-0.81-0.3-0.3-0.0933-0.61-0.1933-0.93-0.3-0.313-0.1067-0.623-0.23-0.93-0.37-0.3-0.1467-0.57-0.33-0.81-0.55-0.233-0.22-0.423-0.49-0.57-0.81-0.14-0.32-0.21-0.7067-0.21-1.16 0-0.42 0.084-0.82 0.25-1.2 0.167-0.38 0.41-0.71 0.73-0.99 0.327-0.2867 0.73-0.5133 1.21-0.68 0.487-0.1733 1.047-0.26 1.68-0.26 0.707 0 1.35 0.1167 1.93 0.35s1.064 0.54 1.45 0.92l-0.56 0.89zm5.949 8.42c-0.893 0-1.58-0.25-2.06-0.75-0.473-0.5067-0.71-1.2033-0.71-2.09v-5.73h-1.05c-0.133 0-0.246-0.0433-0.34-0.13-0.093-0.0867-0.14-0.2167-0.14-0.39v-0.98l1.65-0.27 0.52-2.8c0.034-0.1333 0.097-0.2367 0.19-0.31 0.094-0.0733 0.214-0.11 0.36-0.11h1.28v3.23h2.74v1.76h-2.74v5.56c0 0.32 0.077 0.57 0.23 0.75 0.16 0.18 0.377 0.27 0.65 0.27 0.154 0 0.28-0.0167 0.38-0.05 0.107-0.04 0.197-0.08 0.27-0.12 0.08-0.04 0.15-0.0767 0.21-0.11 0.06-0.04 0.12-0.06 0.18-0.06 0.074 0 0.134 0.02 0.18 0.06 0.047 0.0333 0.097 0.0867 0.15 0.16l0.74 1.2c-0.36 0.3-0.773 0.5267-1.24 0.68-0.466 0.1533-0.95 0.23-1.45 0.23zm10.554-6.47c0-0.32-0.047-0.62-0.14-0.9-0.087-0.2867-0.22-0.5367-0.4-0.75s-0.41-0.38-0.69-0.5c-0.274-0.1267-0.594-0.19-0.96-0.19-0.714 0-1.277 0.2033-1.69 0.61-0.407 0.4067-0.667 0.9833-0.78 1.73h4.66zm-4.71 1.49c0.04 0.5267 0.133 0.9833 0.28 1.37 0.146 0.38 0.34 0.6967 0.58 0.95 0.24 0.2467 0.523 0.4333 0.85 0.56 0.333 0.12 0.7 0.18 1.1 0.18s0.743-0.0467 1.03-0.14c0.293-0.0933 0.546-0.1967 0.76-0.31 0.22-0.1133 0.41-0.2167 0.57-0.31 0.166-0.0933 0.326-0.14 0.48-0.14 0.206 0 0.36 0.0767 0.46 0.23l0.71 0.9c-0.274 0.32-0.58 0.59-0.92 0.81-0.34 0.2133-0.697 0.3867-1.07 0.52-0.367 0.1267-0.744 0.2167-1.13 0.27-0.38 0.0533-0.75 0.08-1.11 0.08-0.714 0-1.377-0.1167-1.99-0.35-0.614-0.24-1.147-0.59-1.6-1.05-0.454-0.4667-0.81-1.04-1.07-1.72-0.26-0.6867-0.39-1.48-0.39-2.38 0-0.7 0.113-1.3567 0.34-1.97 0.226-0.62 0.55-1.1567 0.97-1.61 0.426-0.46 0.943-0.8233 1.55-1.09 0.613-0.2667 1.303-0.4 2.07-0.4 0.646 0 1.243 0.1033 1.79 0.31 0.546 0.2067 1.016 0.51 1.41 0.91 0.393 0.3933 0.7 0.88 0.92 1.46 0.226 0.5733 0.34 1.23 0.34 1.97 0 0.3733-0.04 0.6267-0.12 0.76-0.08 0.1267-0.234 0.19-0.46 0.19h-6.35zm22.507 2.6v2.22h-8.47v-14.46h2.69v12.24h5.78zm4.09-8.04v10.26h-2.48v-10.26h2.48zm0.34-2.99c0 0.2133-0.043 0.4133-0.13 0.6-0.086 0.1867-0.203 0.35-0.35 0.49-0.14 0.14-0.306 0.2533-0.5 0.34-0.193 0.08-0.4 0.12-0.62 0.12-0.213 0-0.416-0.04-0.61-0.12-0.186-0.0867-0.35-0.2-0.49-0.34s-0.253-0.3033-0.34-0.49c-0.08-0.1867-0.12-0.3867-0.12-0.6 0-0.22 0.04-0.4267 0.12-0.62 0.087-0.1933 0.2-0.36 0.34-0.5s0.304-0.25 0.49-0.33c0.194-0.0867 0.397-0.13 0.61-0.13 0.22 0 0.427 0.0433 0.62 0.13 0.194 0.08 0.36 0.19 0.5 0.33 0.147 0.14 0.264 0.3067 0.35 0.5 0.087 0.1933 0.13 0.4 0.13 0.62zm4.648 10.59c0.28 0.34 0.584 0.58 0.91 0.72 0.334 0.14 0.684 0.21 1.05 0.21 0.38 0 0.72-0.0667 1.02-0.2 0.307-0.14 0.567-0.3533 0.78-0.64 0.214-0.2933 0.377-0.6633 0.49-1.11 0.114-0.4533 0.17-0.9933 0.17-1.62 0-1.1267-0.186-1.94-0.56-2.44-0.373-0.5067-0.91-0.76-1.61-0.76-0.473 0-0.886 0.11-1.24 0.33-0.353 0.2133-0.69 0.5167-1.01 0.91v4.6zm0-6.34c0.414-0.4333 0.87-0.7767 1.37-1.03 0.507-0.26 1.084-0.39 1.73-0.39 0.594 0 1.127 0.1167 1.6 0.35 0.48 0.2333 0.887 0.57 1.22 1.01 0.34 0.4333 0.6 0.96 0.78 1.58s0.27 1.3167 0.27 2.09c0 0.8333-0.103 1.59-0.31 2.27-0.206 0.68-0.503 1.2633-0.89 1.75-0.38 0.48-0.84 0.8533-1.38 1.12s-1.14 0.4-1.8 0.4c-0.32 0-0.61-0.0333-0.87-0.1-0.26-0.06-0.5-0.1467-0.72-0.26s-0.423-0.25-0.61-0.41c-0.18-0.1667-0.353-0.35-0.52-0.55l-0.11 0.69c-0.04 0.1733-0.11 0.2967-0.21 0.37-0.093 0.0733-0.223 0.11-0.39 0.11h-1.63v-14.86h2.47v5.86zm11.208 0.52c0.32-0.6133 0.7-1.0933 1.14-1.44 0.44-0.3533 0.96-0.53 1.56-0.53 0.473 0 0.853 0.1033 1.14 0.31l-0.16 1.85c-0.033 0.12-0.083 0.2067-0.15 0.26-0.06 0.0467-0.143 0.07-0.25 0.07-0.1 0-0.25-0.0167-0.45-0.05-0.193-0.0333-0.383-0.05-0.57-0.05-0.273 0-0.517 0.04-0.73 0.12s-0.407 0.1967-0.58 0.35c-0.167 0.1467-0.317 0.3267-0.45 0.54-0.127 0.2133-0.247 0.4567-0.36 0.73v6.32h-2.47v-10.26h1.45c0.253 0 0.43 0.0467 0.53 0.14 0.1 0.0867 0.167 0.2467 0.2 0.48l0.15 1.16zm10.414 4.1c-0.713 0.0333-1.313 0.0967-1.8 0.19-0.486 0.0867-0.876 0.2-1.17 0.34-0.293 0.14-0.503 0.3033-0.63 0.49-0.126 0.1867-0.19 0.39-0.19 0.61 0 0.4333 0.127 0.7433 0.38 0.93 0.26 0.1867 0.597 0.28 1.01 0.28 0.507 0 0.944-0.09 1.31-0.27 0.374-0.1867 0.737-0.4667 1.09-0.84v-1.73zm-5.66-4.45c1.18-1.08 2.6-1.62 4.26-1.62 0.6 0 1.137 0.1 1.61 0.3 0.474 0.1933 0.874 0.4667 1.2 0.82 0.327 0.3467 0.574 0.7633 0.74 1.25 0.174 0.4867 0.26 1.02 0.26 1.6v6.48h-1.12c-0.233 0-0.413-0.0333-0.54-0.1-0.126-0.0733-0.226-0.2167-0.3-0.43l-0.22-0.74c-0.26 0.2333-0.513 0.44-0.76 0.62-0.246 0.1733-0.503 0.32-0.77 0.44-0.266 0.12-0.553 0.21-0.86 0.27-0.3 0.0667-0.633 0.1-1 0.1-0.433 0-0.833-0.0567-1.2-0.17-0.366-0.12-0.683-0.2967-0.95-0.53-0.266-0.2333-0.473-0.5233-0.62-0.87-0.146-0.3467-0.22-0.75-0.22-1.21 0-0.26 0.044-0.5167 0.13-0.77 0.087-0.26 0.227-0.5067 0.42-0.74 0.2-0.2333 0.457-0.4533 0.77-0.66 0.314-0.2067 0.697-0.3867 1.15-0.54 0.46-0.1533 0.994-0.2767 1.6-0.37 0.607-0.1 1.3-0.16 2.08-0.18v-0.6c0-0.6867-0.146-1.1933-0.44-1.52-0.293-0.3333-0.716-0.5-1.27-0.5-0.4 0-0.733 0.0467-1 0.14-0.26 0.0933-0.49 0.2-0.69 0.32-0.2 0.1133-0.383 0.2167-0.55 0.31-0.16 0.0933-0.34 0.14-0.54 0.14-0.173 0-0.32-0.0433-0.44-0.13-0.12-0.0933-0.216-0.2-0.29-0.32l-0.44-0.79zm12.726 0.35c0.32-0.6133 0.7-1.0933 1.14-1.44 0.44-0.3533 0.96-0.53 1.56-0.53 0.474 0 0.854 0.1033 1.14 0.31l-0.16 1.85c-0.033 0.12-0.083 0.2067-0.15 0.26-0.06 0.0467-0.143 0.07-0.25 0.07-0.1 0-0.25-0.0167-0.45-0.05-0.193-0.0333-0.383-0.05-0.57-0.05-0.273 0-0.516 0.04-0.73 0.12-0.213 0.08-0.406 0.1967-0.58 0.35-0.166 0.1467-0.316 0.3267-0.45 0.54-0.126 0.2133-0.246 0.4567-0.36 0.73v6.32h-2.47v-10.26h1.45c0.254 0 0.43 0.0467 0.53 0.14 0.1 0.0867 0.167 0.2467 0.2 0.48l0.15 1.16zm14.451-1.78-5.59 13.08c-0.073 0.1733-0.17 0.3033-0.29 0.39-0.113 0.0933-0.29 0.14-0.53 0.14h-1.84l1.92-4.12-4.15-9.49h2.17c0.194 0 0.344 0.0467 0.45 0.14 0.114 0.0933 0.197 0.2 0.25 0.32l2.18 5.32c0.074 0.18 0.134 0.36 0.18 0.54 0.054 0.18 0.104 0.3633 0.15 0.55 0.06-0.1867 0.12-0.37 0.18-0.55 0.06-0.1867 0.127-0.37 0.2-0.55l2.06-5.31c0.054-0.1333 0.14-0.2433 0.26-0.33 0.127-0.0867 0.267-0.13 0.42-0.13h1.98z" fill="#E9E9E9"/></g></svg>
