<svg viewBox="0 0 777 784" xmlns="http://www.w3.org/2000/svg"><path d="m474.61 148.17c30.56 36.648 43.028 76.185 38.628 114.93-0.639 5.472-3.392 10.486-7.671 13.975-3.95 3.22-8.912 4.903-13.968 4.768-3.667-1.118-6.981-3.235-9.548-6.154-3.602-4.095-5.449-9.443-5.145-14.899 1.757-26.48-7.326-54.124-29.902-81.197-24-28.781-49.899-42.688-75.369-45.847-5.338-0.698-10.192-3.43-13.549-7.626s-4.957-9.532-4.468-14.895c0.479-5.43 3.044-10.472 7.156-14.069 4.111-3.5969 9.451-5.4685 14.898-5.2219 2.666 0.1537 5.321 0.3841 7.965 0.6917 33.284 5.6467 64.508 23.807 90.973 55.543zm-90.973-55.543c-4.946-0.839-9.937-1.4018-14.965-1.6917-5.447-0.2466-10.787 1.625-14.898 5.2219-4.112 3.597-6.677 8.6392-7.156 14.069-0.489 5.363 1.111 10.699 4.468 14.895s8.211 6.928 13.549 7.626c25.47 3.159 51.369 17.066 75.369 45.847 22.576 27.073 31.659 54.717 29.902 81.197-0.304 5.456 1.543 10.804 5.145 14.899 3.601 4.095 8.671 6.61 14.123 7.006l1.16 0.076c0.422 0.037 0.844 0.061 1.265 0.072 1.476 0.45 3.01 0.738 4.575 0.852l1.16 0.076c5.488 0.477 10.954-1.208 15.233-4.696 4.279-3.489 7.032-8.503 7.671-13.975 4.4-38.746-8.068-78.283-38.628-114.93-28.312-33.952-62.072-52.366-97.973-56.543zm-286.71 175.52c-0.454 4.891 1.0545 9.754 4.1933 13.519 1.788 2.151 3.985 3.927 6.464 5.225 2.48 1.298 5.194 2.094 7.986 2.34 0.801 0.071 1.604 0.096 2.406 0.076 1.488 0.475 3.029 0.786 4.594 0.924 2.792 0.247 5.608-0.06 8.287-0.902 2.678-0.843 5.166-2.204 7.32-4.007l142.35-118.7c8.17-6.871 16.979-12.945 26.305-18.137l3.846-45.072c-2.472 1.01-4.924 2.063-7.355 3.159l0.355-4.159c-22.17 9.059-42.761 21.599-60.993 37.143l-139.14 116.03c-3.781 3.154-6.1603 7.673-6.6143 12.565zm202.9-120.66 3.491-40.913c-19.377 8.733-37.439 20.173-53.638 33.984l-139.14 116.03c-3.781 3.154-6.16 7.673-6.614 12.565-0.454 4.891 1.054 9.754 4.193 13.519 1.788 2.151 3.985 3.927 6.464 5.225 1.09 0.57 2.225 1.044 3.392 1.416 1.991-0.049 3.971-0.378 5.881-0.978 2.678-0.843 5.166-2.204 7.32-4.007l142.35-118.7c8.17-6.871 16.979-12.945 26.305-18.137zm191.53 178.24-45.685-3.959c-8.295 10.933-17.837 20.866-28.432 29.594l-111.61 93.071c-5.336 4.425-9.75 9.854-12.99 15.977s-5.241 12.819-5.89 19.705 0.068 13.826 2.11 20.423c2.041 6.597 5.367 12.72 9.786 18.021l101.63 121.87c3.715 4.455 9.056 7.246 14.847 7.757 0.792 0.07 1.583 0.097 2.371 0.081 1.493 0.469 3.044 0.779 4.629 0.919 5.791 0.512 11.559-1.297 16.034-5.028 4.475-3.732 7.29-9.08 7.828-14.869 0.537-5.789-1.248-11.544-4.963-15.999l-83.533-100.17c-6.953-8.339-10.295-19.11-9.289-29.945 1.005-10.835 6.276-20.845 14.651-27.83l83.801-69.879c20.393-16.563 37.873-36.418 51.711-58.736l-7.232-0.627c0.077-0.124 0.155-0.248 0.232-0.373zm-0.232 0.373-38.453-3.332c-8.295 10.933-17.837 20.866-28.432 29.594l-111.61 93.071c-5.336 4.425-9.75 9.854-12.99 15.977s-5.241 12.819-5.89 19.705 0.068 13.826 2.11 20.423c2.041 6.597 5.367 12.72 9.786 18.021l101.63 121.87c2.698 3.236 6.255 5.594 10.218 6.838 4.973-0.1 9.8-1.888 13.663-5.109 4.475-3.732 7.29-9.08 7.828-14.869 0.537-5.789-1.248-11.544-4.963-15.999l-83.533-100.17c-6.953-8.339-10.295-19.11-9.289-29.945 1.005-10.835 6.276-20.845 14.651-27.83l83.801-69.879c20.279-16.471 37.678-36.197 51.479-58.363zm-325.17-27.206-2.732-3.276 0.056-0.047c-1.881-2.256-4.307-3.954-7.017-4.958 0.881-0.062 1.77-0.055 2.66 0.024 4.43 0.391 8.515 2.526 11.357 5.934l-0.056 0.047 1.423 1.706-25.759 21.48-1.423-1.706c-0.211-0.253-0.414-0.512-0.609-0.776l22.1-18.428zm-69.826 100.88c-0.8885 0.068-1.7864 0.063-2.6851-0.016-4.3144-0.382-8.2931-2.46-11.061-5.78-2.7678-3.319-4.0978-7.606-3.6975-11.919 0.4002-4.313 2.498-8.297 5.8318-11.077l61.369-51.175 1.309 1.569 25.759-21.479-1.309-1.57 54.039-45.062c3.334-2.78 7.631-4.127 11.945-3.746 1.491 0.132 2.941 0.466 4.316 0.984-3.378 0.258-6.621 1.561-9.261 3.762l-141.17 117.72c-3.3338 2.78-5.4316 6.764-5.8318 11.077-0.4003 4.313 0.9297 8.6 3.6975 11.919 1.8116 2.173 4.1421 3.814 6.7459 4.796zm71.249-48.617-54.989 45.854c-3.334 2.78-7.63 4.128-11.945 3.747-1.4903-0.132-2.9405-0.466-4.3147-0.984 3.3774-0.259 6.6197-1.562 9.2597-3.763l141.17-117.72c3.334-2.78 5.431-6.765 5.832-11.077 0.4-4.313-0.93-8.601-3.698-11.92-1.812-2.172-4.142-3.813-6.745-4.795 0.888-0.068 1.786-0.063 2.684 0.016 4.315 0.381 8.293 2.46 11.061 5.779s4.098 7.607 3.698 11.92c-0.401 4.312-2.498 8.297-5.832 11.077l-62.263 51.92c-1.54-0.179-3.15 0.251-4.437 1.324l-17.379 14.492c-1.287 1.073-2 2.58-2.1 4.126zm16.946 15.399c-2.409 1.34-5.499 0.831-7.322-1.355l-8.288-9.939c-0.994-1.192-1.43-2.666-1.336-4.105l23.916-19.942c1.283 0.149 2.518 0.721 3.476 1.697-0.317 0.177-0.623 0.385-0.913 0.627l-17.379 14.492c-2.485 2.072-2.827 5.757-0.764 8.231l8.288 9.939c0.103 0.124 0.21 0.242 0.322 0.355zm3.426 1.691c-1.266-0.158-2.481-0.728-3.426-1.691 0.317-0.177 0.623-0.385 0.913-0.627l17.379-14.492c2.485-2.072 2.827-5.758 0.764-8.231l-8.288-9.939c-0.103-0.124-0.211-0.242-0.322-0.355 2.409-1.34 5.499-0.831 7.322 1.355l8.288 9.939c0.983 1.178 1.42 2.631 1.339 4.054l-23.969 19.987zm-50.625 80.69c-0.888 0.068-1.786 0.063-2.685-0.016-4.314-0.382-8.293-2.46-11.061-5.78-2.767-3.319-4.098-7.606-3.697-11.919 0.4-4.313 2.498-8.297 5.832-11.077l62.236-51.898c1.555 0.195 3.186-0.233 4.487-1.318l17.379-14.492c1.301-1.085 2.015-2.613 2.103-4.177l54.962-45.832c3.334-2.78 7.631-4.127 11.945-3.746 1.491 0.132 2.941 0.466 4.316 0.984-3.378 0.258-6.621 1.561-9.261 3.762l-141.17 117.72c-3.334 2.78-5.432 6.764-5.832 11.077-0.401 4.313 0.93 8.6 3.697 11.919 1.812 2.173 4.143 3.814 6.746 4.796zm72.234-49.438-55.974 46.675c-3.334 2.78-7.63 4.128-11.945 3.747-1.49-0.132-2.94-0.466-4.315-0.984 3.378-0.259 6.62-1.562 9.26-3.763l141.17-117.72c3.333-2.78 5.431-6.765 5.832-11.078 0.4-4.312-0.93-8.6-3.698-11.919-1.812-2.172-4.142-3.813-6.745-4.795 0.888-0.068 1.786-0.063 2.684 0.016 4.315 0.381 8.293 2.46 11.061 5.779s4.098 7.607 3.698 11.919c-0.401 4.313-2.499 8.298-5.832 11.078l-63.277 52.765c-1.454 0.024-2.912 0.527-4.118 1.533l-15.551 12.967c-1.206 1.006-1.963 2.35-2.248 3.776zm16.099 15.595c-2.628 1.19-5.823 0.548-7.753-1.767l-6.957-8.343c-1.32-1.583-1.764-3.606-1.389-5.485l21.917-18.276c1.577-0.027 3.15 0.511 4.393 1.584-0.532 0.241-1.041 0.557-1.511 0.949l-15.551 12.967c-2.795 2.331-3.18 6.477-0.859 9.261l6.957 8.343c0.234 0.28 0.486 0.536 0.753 0.767zm4.336 1.585c-1.558 0.012-3.108-0.525-4.336-1.585 0.532-0.241 1.041-0.557 1.511-0.949l15.551-12.967c2.796-2.331 3.18-6.477 0.86-9.261l-6.958-8.343c-0.234-0.28-0.486-0.536-0.753-0.767 2.629-1.19 5.822-0.548 7.753 1.767l6.958 8.343c1.306 1.567 1.755 3.565 1.4 5.428l-21.986 18.334zm-51.603 81.505c-0.888 0.068-1.786 0.063-2.685-0.016-4.314-0.382-8.293-2.46-11.061-5.78-2.768-3.319-4.098-7.606-3.697-11.919 0.4-4.313 2.498-8.297 5.832-11.077l63.214-52.713c1.473-0.011 2.953-0.515 4.175-1.534l15.551-12.967c1.222-1.019 1.984-2.385 2.26-3.833l55.967-46.67c3.334-2.78 7.631-4.127 11.945-3.746 1.491 0.132 2.941 0.466 4.315 0.984-3.377 0.258-6.62 1.561-9.26 3.762l-141.17 117.72c-3.334 2.78-5.432 6.764-5.832 11.077-0.401 4.313 0.929 8.6 3.697 11.919 1.812 2.173 4.142 3.814 6.746 4.796zm70.172-47.719-53.912 44.956c-3.334 2.78-7.631 4.128-11.945 3.747-1.49-0.132-2.94-0.466-4.315-0.984 3.378-0.259 6.621-1.562 9.26-3.763l141.17-117.72c3.333-2.78 5.431-6.765 5.831-11.078 0.401-4.312-0.929-8.6-3.697-11.919-1.812-2.172-4.142-3.813-6.746-4.795 0.889-0.068 1.787-0.063 2.685 0.016 4.314 0.381 8.293 2.46 11.061 5.779s4.098 7.607 3.697 11.919c-0.4 4.313-2.498 8.298-5.831 11.078l-61.173 51.01-1.355-1.625-26.097 21.761 1.369 1.614zm15.541 7.672c-0.624 0.043-1.251 0.051-1.878 0.024-2.352-0.101-4.655-0.689-6.764-1.727-2.108-1.037-3.976-2.503-5.485-4.302l-1.414-1.667 26.083-21.75 0.723 0.867c0.445 0.504 0.859 1.031 1.24 1.578l-22.415 18.691 2.783 3.281c1.509 1.799 3.377 3.265 5.485 4.302 0.536 0.264 1.084 0.498 1.642 0.703zm0 0c1.716-0.116 3.409-0.493 5.021-1.119 2.197-0.853 4.196-2.153 5.868-3.817 2.989-3.199 4.684-7.39 4.753-11.757 0.059-3.693-1.048-7.287-3.137-10.284l3.682-3.07 2.078 2.492c2.886 3.266 4.447 7.495 4.377 11.862-0.069 4.367-1.764 8.558-4.753 11.757-1.672 1.664-3.671 2.964-5.868 3.817-2.198 0.854-4.547 1.243-6.899 1.143-1.755-0.075-3.482-0.422-5.122-1.024zm-120.05-140.81-3.659 3.051-2.732-3.275c-2.842-3.409-4.208-7.811-3.797-12.24 0.412-4.428 2.566-8.52 5.989-11.374 3.423-2.855 7.835-4.239 12.266-3.847 1.498 0.132 2.956 0.464 4.34 0.976-3.504 0.247-6.871 1.589-9.606 3.871-3.423 2.854-5.577 6.946-5.989 11.374-0.38 4.1 0.762 8.177 3.188 11.464zm285.09-40.135c2.86 0.813 5.535 2.205 7.854 4.103 3.307 2.707 5.744 6.325 7.009 10.409 1.266 4.085 1.305 8.455 0.113 12.571-1.192 4.117-3.564 7.8-6.821 10.594-3.672 3.066-8.252 4.832-13.024 5.022-0.976 0.071-1.955 0.062-2.929-0.026l-106.56-9.415c-5.218-1.379-9.916-4.344-13.414-8.538-4.457-5.345-6.599-12.249-5.956-19.193l1.623-17.207 8.533-92.22c0.449-4.27 2.142-8.319 4.869-11.645 2.727-3.327 6.368-5.784 10.471-7.068 1.995-0.624 4.057-0.957 6.123-0.998 3.915 1.228 7.404 3.534 10.067 6.658 2.574 3.024 4.245 6.712 4.824 10.645 0.3 1.769 0.359 3.571 0.177 5.358l-5.968 63.216-1.539 18.228c-0.247 2.829 0.613 5.637 2.398 7.833 1.84 2.162 4.455 3.521 7.291 3.786l3.824 0.338c1.05 0.456 2.176 0.749 3.339 0.858l77.694 6.691zm0 0 3.255 0.28c4.26 0.439 8.292 2.116 11.599 4.823s5.744 6.325 7.009 10.409c1.266 4.085 1.305 8.455 0.113 12.571-1.192 4.117-3.564 7.8-6.821 10.594-3.672 3.066-8.252 4.832-13.024 5.022l-112.09-9.671c-1.495-0.133-2.965-0.392-4.396-0.77l-2.604-0.23c-6.947-0.616-13.353-3.964-17.81-9.308-4.457-5.345-6.599-12.249-5.956-19.193l1.623-17.207 8.533-92.22c0.449-4.27 2.142-8.319 4.869-11.645 2.727-3.327 6.368-5.784 10.471-7.068 4.104-1.283 8.489-1.336 12.611-0.152 0.171 0.049 0.342 0.1 0.512 0.154 2.183-0.044 4.37 0.238 6.488 0.846 4.123 1.184 7.801 3.553 10.579 6.812 2.574 3.024 4.245 6.712 4.824 10.645l-7.33 86.802c-0.251 2.876 0.642 5.73 2.487 7.942 1.098 1.317 2.481 2.343 4.026 3.015l77.288 6.829c1.273 0.131 2.526 0.373 3.745 0.72z" clip-rule="evenodd" fill="#64F4F4" fill-rule="evenodd"/><path d="m474.61 148.17c30.56 36.648 43.028 76.185 38.628 114.93-0.639 5.472-3.392 10.486-7.671 13.975-3.95 3.22-8.912 4.903-13.968 4.768 1.476 0.45 3.01 0.738 4.575 0.852l1.16 0.076c5.488 0.477 10.954-1.208 15.233-4.696 4.279-3.489 7.032-8.503 7.671-13.975 4.4-38.746-8.068-78.283-38.628-114.93-28.312-33.952-62.072-52.366-97.973-56.543 33.284 5.6466 64.508 23.807 90.973 55.543zm-356.63 141.14c1.488 0.475 3.029 0.786 4.594 0.924 2.792 0.247 5.608-0.06 8.287-0.902 2.678-0.843 5.166-2.204 7.32-4.007l142.35-118.7c8.17-6.871 16.979-12.945 26.305-18.137l3.846-45.072c-2.472 1.01-4.924 2.063-7.355 3.159l-3.491 40.913c-9.326 5.192-18.135 11.266-26.305 18.137l-142.35 118.7c-2.154 1.803-4.642 3.164-7.32 4.007-1.91 0.6-3.89 0.929-5.881 0.978zm299.52 358.95c1.493 0.469 3.044 0.779 4.629 0.919 5.791 0.512 11.559-1.297 16.034-5.028 4.475-3.732 7.29-9.08 7.828-14.869 0.537-5.789-1.248-11.544-4.963-15.999l-83.533-100.17c-6.953-8.339-10.295-19.11-9.289-29.945 1.005-10.835 6.276-20.845 14.651-27.83l83.801-69.879c20.393-16.563 37.873-36.418 51.711-58.736l-7.232-0.627c-13.801 22.166-31.2 41.892-51.479 58.363l-83.801 69.879c-8.375 6.985-13.646 16.995-14.651 27.83-1.006 10.835 2.336 21.606 9.289 29.945l83.533 100.17c3.715 4.455 5.5 10.21 4.963 15.999-0.538 5.789-3.353 11.137-7.828 14.869-3.863 3.221-8.69 5.009-13.663 5.109zm-251.53-349.37-2.732-3.276 0.056-0.047c-1.881-2.256-4.307-3.954-7.017-4.958 0.881-0.062 1.77-0.055 2.66 0.024 4.43 0.391 8.515 2.526 11.357 5.934l-0.056 0.047 1.423 1.706-25.759 21.48-1.423-1.706c-0.211-0.253-0.414-0.512-0.609-0.776l22.1-18.428zm-69.826 100.88c1.3742 0.518 2.8244 0.852 4.3147 0.984 4.315 0.381 8.611-0.967 11.945-3.747l54.989-45.853c0.1-1.547 0.813-3.054 2.1-4.127l17.379-14.492c1.287-1.073 2.897-1.503 4.437-1.324l62.263-51.92c3.334-2.78 5.431-6.765 5.832-11.077 0.4-4.313-0.93-8.601-3.698-11.92s-6.746-5.398-11.061-5.779c-0.898-0.079-1.796-0.084-2.684-0.016 2.603 0.982 4.933 2.623 6.745 4.795 2.768 3.319 4.098 7.607 3.698 11.92-0.401 4.312-2.498 8.297-5.832 11.077l-141.17 117.72c-2.64 2.201-5.8823 3.504-9.2597 3.763zm88.194-33.218c0.318-0.176 0.624-0.385 0.914-0.627l17.379-14.492c2.485-2.072 2.827-5.758 0.764-8.231l-8.288-9.939c-0.103-0.124-0.211-0.242-0.322-0.355 2.409-1.34 5.499-0.831 7.322 1.355l8.288 9.939c0.983 1.178 1.42 2.631 1.339 4.054l-23.969 19.987c-1.266-0.158-2.481-0.728-3.427-1.691zm-47.198 82.381c1.375 0.518 2.825 0.852 4.315 0.984 4.315 0.381 8.611-0.967 11.945-3.747l55.974-46.675c0.285-1.426 1.042-2.77 2.248-3.776l15.551-12.967c1.206-1.006 2.664-1.509 4.118-1.533l63.277-52.765c3.333-2.78 5.431-6.765 5.832-11.078 0.4-4.312-0.93-8.6-3.698-11.919s-6.746-5.398-11.061-5.779c-0.898-0.079-1.796-0.084-2.684-0.016 2.603 0.982 4.933 2.623 6.745 4.795 2.768 3.319 4.098 7.607 3.698 11.919-0.401 4.313-2.499 8.298-5.832 11.078l-141.17 117.72c-2.64 2.201-5.882 3.504-9.26 3.763zm88.333-33.843c0.532-0.241 1.041-0.557 1.511-0.949l15.551-12.967c2.796-2.331 3.18-6.477 0.86-9.261l-6.958-8.343c-0.234-0.28-0.486-0.536-0.753-0.767 2.629-1.19 5.822-0.548 7.753 1.767l6.958 8.343c1.306 1.567 1.755 3.565 1.4 5.428l-21.986 18.334c-1.558 0.013-3.108-0.525-4.336-1.585zm-47.267 83.09c1.375 0.518 2.825 0.852 4.315 0.984 4.314 0.381 8.611-0.967 11.945-3.747l53.912-44.956-1.369-1.614 26.097-21.761 1.355 1.625 61.173-51.01c3.333-2.78 5.431-6.765 5.831-11.078 0.401-4.312-0.929-8.6-3.697-11.919s-6.747-5.398-11.061-5.779c-0.898-0.079-1.796-0.084-2.685-0.016 2.604 0.982 4.934 2.623 6.746 4.795 2.768 3.319 4.098 7.607 3.697 11.919-0.4 4.313-2.498 8.298-5.831 11.078l-141.17 117.72c-2.639 2.201-5.882 3.504-9.26 3.763zm85.713-40.047c1.716-0.116 3.409-0.493 5.021-1.119 2.197-0.853 4.196-2.153 5.868-3.817 2.989-3.199 4.684-7.39 4.753-11.757 0.059-3.693-1.048-7.287-3.137-10.284l3.682-3.07 2.078 2.492c2.886 3.266 4.447 7.495 4.377 11.862-0.069 4.367-1.764 8.558-4.753 11.757-1.672 1.664-3.671 2.964-5.868 3.817-2.198 0.854-4.547 1.243-6.899 1.143-1.755-0.075-3.482-0.422-5.122-1.024zm165.04-180.95c2.86 0.813 5.535 2.205 7.854 4.103 3.307 2.707 5.744 6.325 7.009 10.409 1.266 4.085 1.305 8.455 0.113 12.571-1.192 4.117-3.564 7.8-6.821 10.594-3.672 3.066-8.252 4.832-13.024 5.022-0.976 0.071-1.955 0.062-2.929-0.026l-106.56-9.415c1.431 0.378 2.901 0.638 4.396 0.77l112.09 9.671c4.772-0.19 9.352-1.956 13.024-5.022 3.257-2.794 5.629-6.477 6.821-10.594 1.192-4.116 1.153-8.486-0.113-12.571-1.265-4.084-3.702-7.702-7.009-10.409s-7.339-4.384-11.599-4.823l-3.255-0.28zm-81.033-7.549-3.824-0.338c-2.836-0.265-5.451-1.624-7.291-3.786-1.785-2.196-2.645-5.004-2.398-7.833l1.539-18.228 5.968-63.216c0.182-1.787 0.123-3.589-0.177-5.358-0.579-3.933-2.25-7.621-4.824-10.645-2.663-3.124-6.152-5.43-10.067-6.658 2.183-0.044 4.37 0.238 6.488 0.846 4.123 1.184 7.801 3.553 10.579 6.812 2.574 3.024 4.245 6.712 4.824 10.645l-7.33 86.802c-0.251 2.876 0.642 5.73 2.487 7.942 1.098 1.317 2.481 2.343 4.026 3.015z" clip-rule="evenodd" fill="#F36A6A" fill-rule="evenodd"/><path d="m474.61 148.17c30.56 36.648 43.028 76.185 38.628 114.93-0.639 5.472-3.392 10.486-7.671 13.975-3.95 3.22-8.912 4.903-13.968 4.768-3.667-1.118-6.981-3.235-9.548-6.154-3.602-4.095-5.449-9.443-5.145-14.899 1.757-26.48-7.326-54.124-29.902-81.197-24-28.781-49.899-42.688-75.369-45.847-5.338-0.698-10.192-3.43-13.549-7.626s-4.957-9.532-4.468-14.895c0.479-5.43 3.044-10.472 7.156-14.069 4.111-3.5969 9.451-5.4685 14.898-5.2219 2.666 0.1537 5.321 0.3841 7.965 0.6917 33.284 5.6467 64.508 23.807 90.973 55.543zm-171.29-41.599-3.491 40.913c-9.326 5.192-18.135 11.266-26.305 18.137l-142.35 118.7c-2.154 1.803-4.642 3.164-7.32 4.007-1.91 0.6-3.89 0.929-5.881 0.978-1.167-0.372-2.302-0.846-3.392-1.416-2.479-1.298-4.676-3.074-6.464-5.225-3.139-3.765-4.647-8.628-4.193-13.519 0.454-4.892 2.833-9.411 6.614-12.565l139.14-116.03c16.199-13.811 34.261-25.251 53.638-33.984zm187.81 219.52c-13.801 22.166-31.2 41.892-51.479 58.363l-83.801 69.879c-8.375 6.985-13.646 16.995-14.651 27.83-1.006 10.835 2.336 21.606 9.289 29.945l83.533 100.17c3.715 4.455 5.5 10.21 4.963 15.999-0.538 5.789-3.353 11.137-7.828 14.869-3.863 3.221-8.69 5.009-13.663 5.109-3.963-1.244-7.52-3.602-10.218-6.838l-101.63-121.87c-4.419-5.301-7.745-11.424-9.786-18.021-2.042-6.597-2.759-13.537-2.11-20.423s2.65-13.582 5.89-19.705 7.654-11.552 12.99-15.977l111.61-93.071c10.595-8.728 20.137-18.661 28.432-29.594l38.453 3.332zm-325.17-27.206-2.732-3.276 0.056-0.047c-1.881-2.256-4.307-3.954-7.017-4.958-3.504 0.247-6.871 1.589-9.606 3.871-3.423 2.854-5.577 6.946-5.989 11.374-0.38 4.1 0.762 8.177 3.188 11.464l22.1-18.428zm110.45 132.26c2.089 2.997 3.196 6.591 3.137 10.284-0.069 4.367-1.764 8.558-4.753 11.757-1.672 1.664-3.671 2.964-5.868 3.817-1.612 0.626-3.305 1.003-5.021 1.119-0.558-0.205-1.106-0.439-1.642-0.703-2.108-1.037-3.976-2.503-5.485-4.302l-2.783-3.281 22.415-18.691zm-1.963-2.445-26.083 21.75-1.369-1.614 26.097-21.761 1.355 1.625zm49.561-79.802c2.604 0.982 4.934 2.623 6.746 4.795 2.768 3.319 4.098 7.607 3.697 11.919-0.4 4.313-2.498 8.298-5.831 11.078l-141.17 117.72c-2.639 2.201-5.882 3.504-9.26 3.763-2.604-0.982-4.934-2.623-6.746-4.796-2.768-3.319-4.098-7.606-3.697-11.919 0.4-4.313 2.498-8.297 5.832-11.077l141.17-117.72c2.64-2.201 5.883-3.504 9.26-3.762zm-72.227 49.432c-0.276 1.448-1.038 2.814-2.26 3.833l-15.551 12.967c-1.222 1.019-2.702 1.523-4.175 1.534l21.986-18.334zm-16.111-15.538c0.267 0.231 0.519 0.487 0.753 0.767l6.958 8.343c2.32 2.784 1.936 6.93-0.86 9.261l-15.551 12.967c-0.47 0.392-0.979 0.708-1.511 0.949-0.267-0.231-0.519-0.487-0.753-0.767l-6.957-8.343c-2.321-2.784-1.936-6.93 0.859-9.261l15.551-12.967c0.47-0.392 0.979-0.708 1.511-0.949zm-4.393-1.584-21.917 18.276c0.285-1.426 1.042-2.77 2.248-3.776l15.551-12.967c1.206-1.006 2.664-1.509 4.118-1.533zm51.666-81.557c2.603 0.982 4.933 2.623 6.745 4.795 2.768 3.319 4.098 7.607 3.698 11.919-0.401 4.313-2.499 8.298-5.832 11.078l-141.17 117.72c-2.64 2.201-5.882 3.504-9.26 3.763-2.603-0.982-4.934-2.623-6.746-4.796-2.767-3.319-4.098-7.606-3.697-11.919 0.4-4.313 2.498-8.297 5.832-11.077l141.17-117.72c2.64-2.201 5.883-3.504 9.261-3.762zm-71.223 48.594c-0.088 1.564-0.802 3.092-2.103 4.177l-17.379 14.492c-1.301 1.085-2.932 1.513-4.487 1.318l23.969-19.987zm-16.949-15.348c0.111 0.113 0.219 0.231 0.322 0.355l8.288 9.939c2.063 2.473 1.721 6.159-0.764 8.231l-17.379 14.492c-0.29 0.242-0.596 0.45-0.913 0.627-0.112-0.113-0.219-0.231-0.322-0.355l-8.288-9.939c-2.063-2.474-1.721-6.159 0.764-8.231l17.379-14.492c0.29-0.242 0.596-0.45 0.913-0.627zm-3.476-1.697-23.916 19.942c0.1-1.546 0.813-3.053 2.1-4.126l17.379-14.492c1.287-1.073 2.897-1.503 4.437-1.324zm50.652-80.712c2.603 0.982 4.933 2.623 6.745 4.795 2.768 3.319 4.098 7.607 3.698 11.92-0.401 4.312-2.498 8.297-5.832 11.077l-141.17 117.72c-2.64 2.201-5.8823 3.504-9.2597 3.763-2.6038-0.982-4.9343-2.623-6.7459-4.796-2.7678-3.319-4.0978-7.606-3.6975-11.919 0.4002-4.313 2.498-8.297 5.8318-11.077l141.17-117.72c2.64-2.201 5.883-3.504 9.261-3.762zm-70.3 47.824 1.309 1.57-25.759 21.479-1.309-1.569 25.759-21.48zm257.3-21.137c2.86 0.813 5.535 2.205 7.854 4.103 3.307 2.707 5.744 6.325 7.009 10.409 1.266 4.085 1.305 8.455 0.113 12.571-1.192 4.117-3.564 7.8-6.821 10.594-3.672 3.066-8.252 4.832-13.024 5.022-0.976 0.071-1.955 0.062-2.929-0.026l-106.56-9.415c-5.218-1.379-9.916-4.344-13.414-8.538-4.457-5.345-6.599-12.249-5.956-19.193l1.623-17.207 8.533-92.22c0.449-4.27 2.142-8.319 4.869-11.645 2.727-3.327 6.368-5.784 10.471-7.068 1.995-0.624 4.057-0.957 6.123-0.998 3.915 1.228 7.404 3.534 10.067 6.658 2.574 3.024 4.245 6.712 4.824 10.645 0.3 1.769 0.359 3.571 0.177 5.358l-5.968 63.216-1.539 18.228c-0.247 2.829 0.613 5.637 2.398 7.833 1.84 2.162 4.455 3.521 7.291 3.786l3.824 0.338c1.05 0.456 2.176 0.749 3.339 0.858l77.694 6.691z" clip-rule="evenodd" fill="#fff" fill-rule="evenodd"/></svg>
